<svg width="30" height="30" viewBox="0 0 30 30" fill="none" xmlns="http://www.w3.org/2000/svg">
<path d="M20.7571 10.5C20.2362 10.5 19.7935 10.3177 19.429 9.95312C19.0644 9.58854 18.8821 9.14583 18.8821 8.625C18.8821 8.27083 19.0592 7.80208 19.4133 7.21875C19.7675 6.63542 20.2154 6.0625 20.7571 5.5C21.2987 6.0625 21.7467 6.63542 22.1008 7.21875C22.455 7.80208 22.6321 8.27083 22.6321 8.625C22.6321 9.14583 22.4498 9.58854 22.0852 9.95312C21.7206 10.3177 21.2779 10.5 20.7571 10.5ZM23.8821 19.25C23.0071 19.25 22.2675 18.9479 21.6633 18.3438C21.0592 17.7396 20.7571 17 20.7571 16.125C20.7571 15.3958 21.08 14.4948 21.7258 13.4219C22.3717 12.349 23.0904 11.375 23.8821 10.5C24.6737 11.375 25.3925 12.349 26.0383 13.4219C26.6842 14.4948 27.0071 15.3958 27.0071 16.125C27.0071 17 26.705 17.7396 26.1008 18.3438C25.4967 18.9479 24.7571 19.25 23.8821 19.25ZM10.7571 23H13.2571V20.5H15.7571V18H13.2571V15.5H10.7571V18H8.25708V20.5H10.7571V23ZM7.00708 28C6.31958 28 5.73104 27.7552 5.24146 27.2656C4.75187 26.776 4.50708 26.1875 4.50708 25.5V15.5C4.50708 13.625 5.10083 12 6.28833 10.625C7.47583 9.25 8.96541 8.41667 10.7571 8.125V5.5H8.25708V3H15.7571C16.4654 3 17.1321 3.10938 17.7571 3.32812C18.3821 3.54688 18.9654 3.85417 19.5071 4.25L17.6946 6.0625C17.4029 5.89583 17.0956 5.76042 16.7727 5.65625C16.4498 5.55208 16.1112 5.5 15.7571 5.5H13.2571V8.125C15.0487 8.41667 16.5383 9.25 17.7258 10.625C18.9133 12 19.5071 13.625 19.5071 15.5V25.5C19.5071 26.1875 19.2623 26.776 18.7727 27.2656C18.2831 27.7552 17.6946 28 17.0071 28H7.00708ZM7.00708 25.5H17.0071V15.5C17.0071 14.125 16.5175 12.9479 15.5383 11.9688C14.5592 10.9896 13.3821 10.5 12.0071 10.5C10.6321 10.5 9.455 10.9896 8.47583 11.9688C7.49666 12.9479 7.00708 14.125 7.00708 15.5V25.5Z" fill="#1F59E0"/>
</svg>
