<svg width="30" height="30" viewBox="0 0 30 30" fill="none" xmlns="http://www.w3.org/2000/svg">
<path d="M6.0625 27.5V15.1562H8.5625V25H17.3125V18.9688L20.5938 15.6875C21.1979 15.0833 21.6667 14.4062 22 13.6562C22.3333 12.9062 22.5 12.1042 22.5 11.25C22.5 10.4167 22.3281 9.625 21.9844 8.875C21.6406 8.125 21.1771 7.44792 20.5938 6.84375L19.8125 6.03125L15.8438 10H10.8438L9.5 11.3438L7.71875 9.59375L9.8125 7.5H14.8125L19.8125 2.5L22.375 5.0625C23.2083 5.89583 23.8542 6.83854 24.3125 7.89062C24.7708 8.94271 25 10.0625 25 11.25C25 12.4375 24.7708 13.5573 24.3125 14.6094C23.8542 15.6615 23.2083 16.6042 22.375 17.4375L19.8125 20V27.5H6.0625ZM12.2188 21.6562L5.71875 15.1562C5.48958 14.9271 5.3125 14.6562 5.1875 14.3438C5.0625 14.0312 5 13.7083 5 13.375C5 13.0417 5.0625 12.724 5.1875 12.4219C5.3125 12.1198 5.48958 11.8542 5.71875 11.625L8.34375 8.96875L12.2188 12.8125C12.8021 13.3958 13.2552 14.0677 13.5781 14.8281C13.901 15.5885 14.0625 16.3854 14.0625 17.2188C14.0625 18.0521 13.9062 18.849 13.5938 19.6094C13.2812 20.3698 12.8229 21.0521 12.2188 21.6562Z" fill="#DF7E0F"/>
</svg>
