<svg width="30" height="29" viewBox="0 0 30 29" fill="none" xmlns="http://www.w3.org/2000/svg">
<path d="M15 20.125C16.5625 20.125 17.8906 19.5781 18.9844 18.4844C20.0781 17.3906 20.625 16.0625 20.625 14.5C20.625 12.9375 20.0781 11.6094 18.9844 10.5156C17.8906 9.42188 16.5625 8.875 15 8.875C13.4375 8.875 12.1094 9.42188 11.0156 10.5156C9.92188 11.6094 9.375 12.9375 9.375 14.5C9.375 16.0625 9.92188 17.3906 11.0156 18.4844C12.1094 19.5781 13.4375 20.125 15 20.125ZM15 17.875C14.0625 17.875 13.2656 17.5469 12.6094 16.8906C11.9531 16.2344 11.625 15.4375 11.625 14.5C11.625 13.5625 11.9531 12.7656 12.6094 12.1094C13.2656 11.4531 14.0625 11.125 15 11.125C15.9375 11.125 16.7344 11.4531 17.3906 12.1094C18.0469 12.7656 18.375 13.5625 18.375 14.5C18.375 15.4375 18.0469 16.2344 17.3906 16.8906C16.7344 17.5469 15.9375 17.875 15 17.875ZM15 23.875C11.9583 23.875 9.1875 23.026 6.6875 21.3281C4.1875 19.6302 2.375 17.3542 1.25 14.5C2.375 11.6458 4.1875 9.36979 6.6875 7.67188C9.1875 5.97396 11.9583 5.125 15 5.125C18.0417 5.125 20.8125 5.97396 23.3125 7.67188C25.8125 9.36979 27.625 11.6458 28.75 14.5C27.625 17.3542 25.8125 19.6302 23.3125 21.3281C20.8125 23.026 18.0417 23.875 15 23.875ZM15 21.375C17.3542 21.375 19.5156 20.7552 21.4844 19.5156C23.4531 18.276 24.9583 16.6042 26 14.5C24.9583 12.3958 23.4531 10.724 21.4844 9.48438C19.5156 8.24479 17.3542 7.625 15 7.625C12.6458 7.625 10.4844 8.24479 8.51562 9.48438C6.54688 10.724 5.04167 12.3958 4 14.5C5.04167 16.6042 6.54688 18.276 8.51562 19.5156C10.4844 20.7552 12.6458 21.375 15 21.375Z" fill="#E8EBE9"/>
</svg>
