<svg width="30" height="29" viewBox="0 0 30 29" fill="none" xmlns="http://www.w3.org/2000/svg">
<path d="M20.375 16.0752L18.5625 14.2627C18.75 13.2835 18.4688 12.3669 17.7188 11.5127C16.9688 10.6585 16 10.3252 14.8125 10.5127L13 8.7002C13.3542 8.53353 13.7135 8.40853 14.0781 8.3252C14.4427 8.24186 14.8333 8.2002 15.25 8.2002C16.8125 8.2002 18.1406 8.74707 19.2344 9.84082C20.3281 10.9346 20.875 12.2627 20.875 13.8252C20.875 14.2419 20.8333 14.6325 20.75 14.9971C20.6667 15.3617 20.5417 15.721 20.375 16.0752ZM24.375 20.0127L22.5625 18.2627C23.3542 17.6585 24.0573 16.9971 24.6719 16.2783C25.2865 15.5596 25.8125 14.7419 26.25 13.8252C25.2083 11.721 23.7135 10.0492 21.7656 8.80957C19.8177 7.56999 17.6458 6.9502 15.25 6.9502C14.6458 6.9502 14.0521 6.99186 13.4688 7.0752C12.8854 7.15853 12.3125 7.28353 11.75 7.4502L9.8125 5.5127C10.6667 5.15853 11.5417 4.8929 12.4375 4.71582C13.3333 4.53874 14.2708 4.4502 15.25 4.4502C18.3958 4.4502 21.1979 5.31999 23.6562 7.05957C26.1146 8.79915 27.8958 11.0544 29 13.8252C28.5208 15.0544 27.8906 16.195 27.1094 17.2471C26.3281 18.2992 25.4167 19.221 24.375 20.0127ZM25 27.7002L19.75 22.5127C19.0208 22.7419 18.2865 22.9137 17.5469 23.0283C16.8073 23.1429 16.0417 23.2002 15.25 23.2002C12.1042 23.2002 9.30208 22.3304 6.84375 20.5908C4.38542 18.8512 2.60417 16.596 1.5 13.8252C1.9375 12.721 2.48958 11.695 3.15625 10.7471C3.82292 9.79915 4.58333 8.9502 5.4375 8.2002L2 4.7002L3.75 2.9502L26.75 25.9502L25 27.7002ZM7.1875 9.9502C6.58333 10.4919 6.03125 11.0856 5.53125 11.7314C5.03125 12.3773 4.60417 13.0752 4.25 13.8252C5.29167 15.9294 6.78646 17.6012 8.73438 18.8408C10.6823 20.0804 12.8542 20.7002 15.25 20.7002C15.6667 20.7002 16.0729 20.6742 16.4688 20.6221C16.8646 20.57 17.2708 20.5127 17.6875 20.4502L16.5625 19.2627C16.3333 19.3252 16.1146 19.3721 15.9062 19.4033C15.6979 19.4346 15.4792 19.4502 15.25 19.4502C13.6875 19.4502 12.3594 18.9033 11.2656 17.8096C10.1719 16.7158 9.625 15.3877 9.625 13.8252C9.625 13.596 9.64062 13.3773 9.67188 13.1689C9.70312 12.9606 9.75 12.7419 9.8125 12.5127L7.1875 9.9502Z" fill="#E8EBE9"/>
</svg>
