<svg width="81" height="65" viewBox="0 0 81 65" fill="none" xmlns="http://www.w3.org/2000/svg">
<path d="M58 32.5C58 27.625 56.3021 23.4896 52.9062 20.0938C49.5104 16.6979 45.375 15 40.5 15V10C43.625 10 46.5521 10.5938 49.2812 11.7812C52.0104 12.9688 54.3854 14.5729 56.4062 16.5938C58.4271 18.6146 60.0312 20.9896 61.2188 23.7188C62.4062 26.4479 63 29.375 63 32.5H58ZM48 32.5C48 30.4167 47.2708 28.6458 45.8125 27.1875C44.3542 25.7292 42.5833 25 40.5 25V20C43.9583 20 46.9062 21.2188 49.3438 23.6562C51.7812 26.0938 53 29.0417 53 32.5H48ZM60.375 55C55.1667 55 50.0208 53.8646 44.9375 51.5938C39.8542 49.3229 35.2292 46.1042 31.0625 41.9375C26.8958 37.7708 23.6771 33.1458 21.4062 28.0625C19.1354 22.9792 18 17.8333 18 12.625C18 11.875 18.25 11.25 18.75 10.75C19.25 10.25 19.875 10 20.625 10H30.75C31.3333 10 31.8542 10.1979 32.3125 10.5938C32.7708 10.9896 33.0417 11.4583 33.125 12L34.75 20.75C34.8333 21.4167 34.8125 21.9792 34.6875 22.4375C34.5625 22.8958 34.3333 23.2917 34 23.625L27.9375 29.75C28.7708 31.2917 29.7604 32.7812 30.9062 34.2188C32.0521 35.6562 33.3125 37.0417 34.6875 38.375C35.9792 39.6667 37.3333 40.8646 38.75 41.9688C40.1667 43.0729 41.6667 44.0833 43.25 45L49.125 39.125C49.5 38.75 49.9896 38.4688 50.5938 38.2812C51.1979 38.0938 51.7917 38.0417 52.375 38.125L61 39.875C61.5833 40.0417 62.0625 40.3438 62.4375 40.7812C62.8125 41.2188 63 41.7083 63 42.25V52.375C63 53.125 62.75 53.75 62.25 54.25C61.75 54.75 61.125 55 60.375 55ZM25.5625 25L29.6875 20.875L28.625 15H23.0625C23.2708 16.7083 23.5625 18.3958 23.9375 20.0625C24.3125 21.7292 24.8542 23.375 25.5625 25ZM47.9375 47.375C49.5625 48.0833 51.2188 48.6458 52.9062 49.0625C54.5938 49.4792 56.2917 49.75 58 49.875V44.375L52.125 43.1875L47.9375 47.375Z" fill="#256D43"/>
</svg>
