<svg width="81" height="57" viewBox="0 0 81 57" fill="none" xmlns="http://www.w3.org/2000/svg">
<path d="M22.5 46.5C21.2625 46.5 20.2031 46.0594 19.3219 45.1781C18.4406 44.2969 18 43.2375 18 42V15C18 13.7625 18.4406 12.7031 19.3219 11.8219C20.2031 10.9406 21.2625 10.5 22.5 10.5H58.5C59.7375 10.5 60.7969 10.9406 61.6781 11.8219C62.5594 12.7031 63 13.7625 63 15V42C63 43.2375 62.5594 44.2969 61.6781 45.1781C60.7969 46.0594 59.7375 46.5 58.5 46.5H22.5ZM40.5 30.75L22.5 19.5V42H58.5V19.5L40.5 30.75ZM40.5 26.25L58.5 15H22.5L40.5 26.25ZM22.5 19.5V15V42V19.5Z" fill="#256D43"/>
</svg>
