<svg width="81" height="61" viewBox="0 0 81 61" fill="none" xmlns="http://www.w3.org/2000/svg">
<path d="M48.8864 31.7424L45.9205 28.7399C46.2273 27.1178 45.767 25.5993 44.5398 24.1843C43.3125 22.7694 41.7273 22.2172 39.7841 22.5278L36.8182 19.5253C37.3977 19.2492 37.9858 19.0421 38.5824 18.904C39.179 18.766 39.8182 18.697 40.5 18.697C43.0568 18.697 45.2301 19.6029 47.0199 21.4148C48.8097 23.2266 49.7045 25.4268 49.7045 28.0152C49.7045 28.7054 49.6364 29.3525 49.5 29.9564C49.3636 30.5604 49.1591 31.1557 48.8864 31.7424ZM55.4318 38.2652L52.4659 35.3662C53.7614 34.3653 54.9119 33.2696 55.9176 32.0789C56.9233 30.8883 57.7841 29.5337 58.5 28.0152C56.7955 24.5295 54.3494 21.7599 51.1619 19.7064C47.9744 17.653 44.4205 16.6263 40.5 16.6263C39.5114 16.6263 38.5398 16.6953 37.5852 16.8333C36.6307 16.9714 35.6932 17.1785 34.7727 17.4545L31.6023 14.2449C33 13.6582 34.4318 13.2182 35.8977 12.9249C37.3636 12.6315 38.8977 12.4848 40.5 12.4848C45.6477 12.4848 50.233 13.9257 54.2557 16.8074C58.2784 19.6892 61.1932 23.4251 63 28.0152C62.2159 30.0513 61.1847 31.9409 59.9062 33.6837C58.6278 35.4266 57.1364 36.9537 55.4318 38.2652ZM56.4545 51L47.8636 42.4066C46.6705 42.7862 45.4688 43.0709 44.2585 43.2607C43.0483 43.4505 41.7955 43.5455 40.5 43.5455C35.3523 43.5455 30.767 42.1046 26.7443 39.2229C22.7216 36.3411 19.8068 32.6052 18 28.0152C18.7159 26.186 19.6193 24.4863 20.7102 22.916C21.8011 21.3457 23.0455 19.9394 24.4432 18.697L18.8182 12.899L21.6818 10L59.3182 48.101L56.4545 51ZM27.3068 21.596C26.3182 22.4933 25.4148 23.4769 24.5966 24.5467C23.7784 25.6166 23.0795 26.7727 22.5 28.0152C24.2045 31.5008 26.6506 34.2704 29.8381 36.3239C33.0256 38.3773 36.5795 39.404 40.5 39.404C41.1818 39.404 41.8466 39.3609 42.4943 39.2746C43.142 39.1883 43.8068 39.0934 44.4886 38.9899L42.6477 37.0227C42.2727 37.1263 41.9148 37.2039 41.5739 37.2557C41.233 37.3074 40.875 37.3333 40.5 37.3333C37.9432 37.3333 35.7699 36.4274 33.9801 34.6155C32.1903 32.8037 31.2955 30.6035 31.2955 28.0152C31.2955 27.6355 31.321 27.2731 31.3722 26.928C31.4233 26.5829 31.5 26.2205 31.6023 25.8409L27.3068 21.596Z" fill="#256D43"/>
</svg>
