<svg width="56" height="56" viewBox="0 0 56 56" fill="none" xmlns="http://www.w3.org/2000/svg">
<path d="M37.3858 34.5966C46.2855 34.5966 53.5 27.4115 53.5 18.5483C53.5 9.68506 46.2855 2.5 37.3858 2.5C28.4863 2.5 21.2718 9.68506 21.2718 18.5483C21.2718 22.6536 23.1456 25.6395 23.1456 25.6395L3.65875 45.0465C2.78433 45.9174 1.56015 48.1815 3.65875 50.2715L5.90721 52.5109C6.78158 53.2573 8.98004 54.3023 10.7788 52.5109L13.402 49.8984C16.0253 52.5109 19.0232 51.0181 20.1475 49.5251C22.0212 46.9126 19.7727 44.3001 19.7727 44.3001L20.5222 43.5538C24.1197 47.1365 27.2676 45.0465 28.3919 43.5538C30.2657 40.9413 28.3919 38.3288 28.3919 38.3288C27.6425 36.8358 26.1436 36.8358 28.0171 34.9699L30.2657 32.7305C32.0644 34.2233 35.7619 34.5966 37.3858 34.5966Z" stroke="#127447" stroke-width="5" stroke-linejoin="round"/>
<path d="M42.5 19C42.5 22.0376 40.0377 24.5 37 24.5C33.9626 24.5 31.5 22.0376 31.5 19C31.5 15.9624 33.9626 13.5 37 13.5C40.0377 13.5 42.5 15.9624 42.5 19Z" stroke="#127447" stroke-width="5"/>
</svg>
