<svg width="65" height="65" viewBox="0 0 65 65" fill="none" xmlns="http://www.w3.org/2000/svg">
<path d="M44.5953 44.4149L46.1135 42.8237L42.5881 39.0864L41.0702 40.6776L44.5953 44.4149ZM51.2118 42.1572L57.5797 45.8062L59.9675 41.1762L53.5996 37.5271L51.2118 42.1572ZM58.8056 53.0587L54.0706 58.0214L57.5957 61.7587L62.3307 56.7959L58.8056 53.0587ZM51.1855 59.6193C46.3528 60.094 33.8497 59.671 20.3126 45.4823L16.7874 49.2195C31.5599 64.7029 45.6199 65.459 51.6494 64.8667L51.1855 59.6193ZM20.3126 45.4823C7.40896 31.9576 5.27148 20.5823 5.0054 15.6473L0.0138282 15.9464C0.348671 22.1575 2.99538 34.7638 16.7874 49.2195L20.3126 45.4823ZM24.8967 23.7682L25.8526 22.7662L22.3276 19.029L21.3716 20.031L24.8967 23.7682ZM26.6136 9.99405L22.4107 4.076L18.4084 7.23437L22.6112 13.1525L26.6136 9.99405ZM8.275 2.7879L3.04338 8.2713L6.56859 12.0085L11.8002 6.52508L8.275 2.7879ZM23.1342 21.8996C21.3716 20.031 21.3692 20.0335 21.3668 20.036C21.366 20.0368 21.3636 20.0394 21.362 20.0411C21.3587 20.0446 21.3554 20.0481 21.352 20.0517C21.3452 20.059 21.3382 20.0666 21.331 20.0744C21.3166 20.0902 21.3013 20.1073 21.2853 20.1257C21.2531 20.1625 21.2178 20.2046 21.18 20.2521C21.1044 20.3472 21.0188 20.4642 20.9288 20.6042C20.7484 20.8849 20.5518 21.256 20.385 21.7227C20.0446 22.6751 19.8621 23.9304 20.0909 25.485C20.5383 28.5251 22.5245 32.5409 27.6125 37.8736L31.1376 34.1363C26.3763 29.1458 25.242 26.1088 25.0314 24.677C24.931 23.9957 25.035 23.6603 25.0637 23.5809C25.081 23.5318 25.0894 23.5268 25.068 23.5603C25.0574 23.5767 25.0397 23.6024 25.012 23.637C24.9984 23.6543 24.982 23.6739 24.963 23.6958C24.9534 23.7067 24.9434 23.7182 24.932 23.7303C24.9267 23.7363 24.921 23.7424 24.915 23.7488C24.912 23.7519 24.909 23.7551 24.906 23.7584C24.9047 23.76 24.9024 23.7624 24.9014 23.7632C24.899 23.7657 24.8967 23.7682 23.1342 21.8996ZM27.6125 37.8736C32.7021 43.208 36.5295 45.2841 39.4183 45.7514C40.8946 45.99 42.0848 45.7995 42.9877 45.445C43.4304 45.2711 43.783 45.0663 44.0497 44.878C44.183 44.7838 44.2943 44.6942 44.3846 44.6152C44.43 44.5758 44.47 44.5389 44.505 44.5052C44.5226 44.4883 44.539 44.4725 44.554 44.4574C44.5616 44.4497 44.5686 44.4423 44.5756 44.4353C44.579 44.4318 44.5823 44.4282 44.5856 44.4247C44.5873 44.423 44.59 44.4205 44.5906 44.4198C44.593 44.4174 44.5953 44.4149 42.8327 42.5461C41.0702 40.6776 41.0725 40.6752 41.0749 40.6727C41.0755 40.672 41.0779 40.6696 41.0795 40.6678C41.0825 40.6646 41.0855 40.6615 41.0885 40.6583C41.0949 40.6523 41.1005 40.6464 41.1062 40.6404C41.1179 40.6288 41.1289 40.6183 41.1392 40.6081C41.1599 40.5884 41.1785 40.5712 41.1952 40.5571C41.2279 40.5283 41.2522 40.51 41.2672 40.4992C41.2982 40.4774 41.2919 40.4872 41.2425 40.5065C41.1609 40.5385 40.8339 40.6485 40.1766 40.542C38.799 40.3196 35.8976 39.125 31.1376 34.1363L27.6125 37.8736ZM22.4107 4.076C19.0133 -0.707878 12.3325 -1.46485 8.275 2.7879L11.8002 6.52508C13.5724 4.66762 16.7197 4.85668 18.4084 7.23437L22.4107 4.076ZM5.0054 15.6473C4.93984 14.4313 5.46894 13.161 6.56859 12.0085L3.04338 8.2713C1.25244 10.1484 -0.155526 12.8056 0.0138282 15.9464L5.0054 15.6473ZM54.0706 58.0214C53.1547 58.9816 52.1727 59.5224 51.1855 59.6193L51.6494 64.8667C54.0979 64.626 56.1041 63.3222 57.5957 61.7587L54.0706 58.0214ZM25.8526 22.7662C29.1341 19.3268 29.378 13.8866 26.6136 9.99405L22.6112 13.1525C23.9561 15.0461 23.7561 17.5317 22.3276 19.029L25.8526 22.7662ZM57.5797 45.8062C60.3055 47.3683 60.7301 51.0413 58.8056 53.0587L62.3307 56.7959C66.798 52.1136 65.4205 44.3007 59.9675 41.1762L57.5797 45.8062ZM46.1135 42.8237C47.3934 41.4822 49.4536 41.1498 51.2118 42.1572L53.5996 37.5271C49.9879 35.4574 45.5056 36.029 42.5881 39.0864L46.1135 42.8237Z" fill="#127447"/>
</svg>
