<svg width="70" height="28" viewBox="0 0 70 28" fill="none" xmlns="http://www.w3.org/2000/svg">
<path d="M6.32653 0.355469H8.10148V27.3555H6.32653V0.355469ZM10.0512 0.355469H11.8223V27.3555H10.0512V0.355469ZM19.0374 0.355469H20.8162V27.3555H19.0374V0.355469ZM22.7179 0.355469H24.4967V27.3555H22.7179V0.355469ZM26.3158 0.355469H28.0869V27.3555H26.3158V0.355469ZM40.8611 0.355469H42.6284V27.3555H40.8611V0.355469ZM44.4936 0.355469H46.2685V27.3555H44.4936V0.355469ZM48.0954 0.355469H49.8665V27.3555H48.0954V0.355469ZM51.7298 0.355469H53.5047V27.3555H51.7298V0.355469ZM60.8465 0.355469H62.6138V27.3555H60.8465V0.355469ZM64.4444 0.355469H66.2194V27.3555H64.4444V0.355469ZM68.0769 0.355469H69.8519V27.3555H68.0769V0.355469ZM0.851868 0.355469H4.50549V27.3555H0.851868V0.355469ZM13.6491 0.355469H17.3028V27.3555H13.6491V0.355469ZM29.9502 0.355469H33.6077V27.3555H29.9502V0.355469ZM35.3845 0.355469H39.0497V27.3555H35.3845V0.355469ZM55.3815 0.355469H59.0312V27.3555H55.3815V0.355469Z" fill="#221E20"/>
</svg>
