<svg width="124" height="65" viewBox="0 0 124 65" fill="none" xmlns="http://www.w3.org/2000/svg">
<mask id="mask0_100_211" style="mask-type:luminance" maskUnits="userSpaceOnUse" x="0" y="0" width="124" height="65">
<path d="M0 0.5H123.6V64.5H0V0.5Z" fill="white"/>
</mask>
<g mask="url(#mask0_100_211)">
<path fill-rule="evenodd" clip-rule="evenodd" d="M37.8107 27.79L34.6099 35.7672H39.0399L37.8259 27.7576L37.8107 27.79ZM20.8535 46.1028L33.9839 19.068H43.9115L49.4471 46.1028H40.7323L40.0899 42.4996H31.6347L29.6895 46.1028H20.8535ZM53.5739 46.1028L57.3775 19.068H66.1595L62.3575 46.1028H53.5739ZM111.983 27.7576L108.77 35.7672H113.198L111.983 27.7576ZM95.0111 46.1028L108.144 19.068H118.069L123.607 46.1028H114.89L114.25 42.4996H105.792L103.847 46.1028H95.0111ZM75.5963 33.4612H86.6011L94.1419 45.9496H83.1351L75.5963 33.4612Z" fill="#0070AF"/>
<path fill-rule="evenodd" clip-rule="evenodd" d="M76.7404 31.5432H88.1148L97.994 19.1076H86.6192L76.7404 31.5432ZM65.3672 46.0252H76.74L86.6192 33.438H75.2444L65.3672 46.0252Z" fill="#F6822A"/>
<path fill-rule="evenodd" clip-rule="evenodd" d="M69.4687 18.956H80.0839L87.3571 31.5432H76.7403L69.4687 18.956ZM21.1131 20.0348L20.2691 27.9868C17.0319 23.5212 9.52949 26.6028 8.94069 32.1656C8.19189 39.2264 15.4127 40.872 19.3415 36.7144L18.4951 44.6844C17.3223 45.26 16.1755 45.7076 15.0435 46.0088C13.9429 46.3071 12.8103 46.4707 11.6703 46.496C10.2627 46.5268 8.98749 46.3788 7.83869 46.0556C6.68989 45.7384 5.65029 45.2328 4.73069 44.5508C2.95629 43.2536 1.67349 41.6044 0.883492 39.598C0.0934919 37.584 -0.166508 35.312 0.102692 32.774C0.319492 30.7332 0.833492 28.8728 1.65269 27.186C2.46469 25.5004 3.58949 23.9668 5.02149 22.5772C6.37549 21.2532 7.85029 20.2532 9.44549 19.5748C11.0351 18.902 12.7695 18.5428 14.6447 18.5028C15.7647 18.4796 16.8635 18.5916 17.9299 18.8496C19.0019 19.1056 20.0595 19.5064 21.1131 20.0348Z" fill="#0070AF"/>
</g>
</svg>
