<svg width="62" height="65" viewBox="0 0 62 65" fill="none" xmlns="http://www.w3.org/2000/svg">
<path d="M25.9364 29.468C25.9364 25.2317 27.9252 21.4723 30.9834 19.0424C28.6542 17.2002 25.7703 16.2001 22.8006 16.2047C21.0585 16.2033 19.3333 16.5454 17.7235 17.2115C16.1138 17.8775 14.6512 18.8545 13.4194 20.0864C12.1876 21.3183 11.2108 22.781 10.5449 24.3908C9.87896 26.0006 9.53701 27.7259 9.53858 29.468C9.53701 31.2102 9.87895 32.9356 10.5448 34.5455C11.2107 36.1555 12.1875 37.6183 13.4192 38.8504C14.651 40.0825 16.1136 41.0596 17.7233 41.726C19.3331 42.3923 21.0584 42.7347 22.8006 42.7336C25.8982 42.7336 28.7383 41.6653 30.9834 39.8935C29.4068 38.6521 28.1332 37.0684 27.2588 35.2622C26.3844 33.456 25.9322 31.4746 25.9364 29.468Z" fill="#E31021"/>
<path d="M52.4614 29.468C52.4628 31.2103 52.1207 32.9359 51.4546 34.5459C50.7885 36.1559 49.8116 37.6188 48.5796 38.8509C47.3476 40.083 45.8848 41.0601 44.2748 41.7263C42.6649 42.3925 40.9394 42.7348 39.197 42.7336C36.103 42.7336 33.2593 41.6653 31.0154 39.8935C32.5955 38.6552 33.8718 37.0722 34.7467 35.2653C35.6216 33.4584 36.0721 31.4755 36.0636 29.468C36.0636 25.2317 34.0725 21.4723 31.0154 19.0424C33.3445 17.2008 36.2278 16.2008 39.197 16.2047C46.5297 16.2047 52.4614 22.1746 52.4614 29.468Z" fill="#F49D1E"/>
<path d="M31.0155 19.0424H30.9833C27.9239 21.4735 25.9363 25.2317 25.9363 29.468C25.9321 31.4746 26.3843 33.456 27.2587 35.2622C28.1331 37.0684 29.4067 38.6521 30.9833 39.8935H31.0155C32.5957 38.6552 33.872 37.0722 34.7469 35.2653C35.6218 33.4584 36.0722 31.4755 36.0638 29.468C36.0638 25.2317 34.0726 21.4723 31.0155 19.0424Z" fill="#EA611C"/>
<path fill-rule="evenodd" clip-rule="evenodd" d="M50.3989 47.6673V44.5018H49.6204V46.3463C49.364 46.0124 49.0028 45.83 48.5163 45.83C47.5231 45.83 46.7517 46.605 46.7517 47.6685C46.7517 48.7416 47.5219 49.5118 48.5163 49.5118C49.0349 49.5118 49.4022 49.3282 49.6204 49.0015V49.4403H50.4001L50.3989 47.6673ZM27.5543 45.9015H28.8039V46.605H27.5555V48.1908C27.5555 48.5556 27.6986 48.775 28.0694 48.775C28.2518 48.775 28.5106 48.7416 28.7383 48.595L28.9553 49.2567C28.6606 49.4189 28.3306 49.5065 27.9943 49.5118C27.112 49.5118 26.7853 49.0349 26.7853 48.2242V46.605H26.0806V45.9015H26.7853V44.838H27.5555L27.5543 45.9015ZM17.3517 47.2298V49.4403H16.5052V47.4873C16.5052 46.8971 16.2453 46.5621 15.7266 46.5621C15.2461 46.5621 14.8801 46.8578 14.8801 47.4873V49.4391H14.1027V47.4873C14.1027 46.8971 13.8464 46.5621 13.3325 46.5621C12.815 46.5621 12.4824 46.8578 12.4824 47.4873V49.4391H11.7109V45.9003H12.4836V46.3451C12.7816 45.9397 13.1512 45.8288 13.5149 45.8288C14.0681 45.8288 14.4389 46.0494 14.6953 46.4548C15.0267 45.9767 15.5025 45.8288 15.952 45.8288C16.8343 45.8288 17.3517 46.3832 17.3517 47.2298ZM35.3675 45.83C35.1812 45.8245 34.9969 45.8696 34.8342 45.9605C34.6715 46.0515 34.5365 46.1848 34.4435 46.3463V45.9015H33.6721V49.4403H34.4435V47.4515C34.4435 46.859 34.701 46.5299 35.1779 46.5299C35.3294 46.5299 35.5106 46.5621 35.6632 46.6026L35.8814 45.861C35.7312 45.8288 35.5118 45.83 35.3675 45.83ZM24.0203 45.83C24.5736 45.83 25.0874 45.9421 25.4523 46.1972L25.1292 46.822C24.9026 46.7123 24.4615 46.5299 24.0227 46.5299C23.6137 46.5299 23.355 46.6753 23.355 46.9353C23.355 47.1547 23.6137 47.2286 23.944 47.2632L24.3148 47.3013C25.0493 47.411 25.5262 47.7448 25.5262 48.3684C25.5262 49.0325 24.936 49.513 23.9071 49.513C23.3526 49.513 22.8018 49.3652 22.3976 49.0695L22.7672 48.4817C23.0224 48.6653 23.4313 48.8537 23.944 48.8537C24.4603 48.8537 24.7548 48.6653 24.7548 48.4078C24.7548 48.2218 24.5366 48.1097 24.1276 48.0417L23.7616 48.0048C22.983 47.8927 22.5454 47.5588 22.5454 46.9675C22.5454 46.2688 23.1344 45.83 24.0203 45.83ZM46.0101 45.83C45.8252 45.8252 45.6425 45.8707 45.4814 45.9617C45.3204 46.0526 45.187 46.1855 45.0956 46.3463V45.9015H44.3182V49.4403H45.0956V47.4515C45.0956 46.859 45.3519 46.5299 45.8288 46.5299C45.9767 46.5299 46.1627 46.5621 46.3034 46.6026L46.5299 45.861C46.3832 45.8288 46.1627 45.83 46.0101 45.83ZM38.0156 49.5118C36.8758 49.5118 36.1377 48.7416 36.1377 47.6685C36.1377 46.6038 36.8758 45.83 38.0156 45.8276C38.5331 45.8276 38.9027 45.9409 39.2759 46.2354L38.9027 46.859C38.6406 46.6482 38.315 46.5323 37.9787 46.5299C37.3587 46.5597 36.9116 47.0068 36.9116 47.6685C36.9116 48.3684 37.3575 48.8132 37.9787 48.8132C38.3149 48.8132 38.6094 48.7047 38.9027 48.4817L39.2759 49.1077C38.9027 49.4033 38.5331 49.5118 38.0156 49.5118ZM43.2844 47.6685V45.9015H42.513V46.3463C42.2567 46.0124 41.8847 45.83 41.4066 45.83C40.4169 45.83 39.636 46.605 39.636 47.6685C39.636 48.7416 40.4157 49.5118 41.4066 49.5118C41.9228 49.5118 42.296 49.3282 42.513 49.0015V49.4403H43.2844V47.6685ZM41.5198 46.5311C40.8557 46.5311 40.4467 47.0473 40.4467 47.6685C40.4467 48.3005 40.8533 48.7738 41.5198 48.8132C42.141 48.8132 42.5893 48.3005 42.5893 47.6685C42.5893 47.0068 42.141 46.5311 41.5198 46.5311ZM31.204 45.83C30.1702 45.83 29.4334 46.5633 29.4334 47.6685C29.4334 48.775 30.1702 49.5118 31.2421 49.5118C31.7548 49.5118 32.2699 49.3664 32.6729 49.0349L32.3081 48.4829C32.0121 48.7133 31.6504 48.8432 31.2755 48.8537C30.7926 48.8537 30.3169 48.6272 30.2048 48.0048H32.8219V47.7091C32.8625 46.5633 32.1972 45.83 31.204 45.83ZM32.0887 47.343C32.0136 46.7898 31.6797 46.4941 31.204 46.4941C30.6531 46.4941 30.3169 46.859 30.2442 47.343H32.0887ZM48.6272 46.5311C47.9631 46.5311 47.5624 47.0473 47.5624 47.6685C47.5624 48.3005 47.9619 48.7738 48.6272 48.8132C49.2591 48.8132 49.6979 48.3005 49.6979 47.6685C49.6979 47.0068 49.2591 46.5311 48.6272 46.5311ZM21.6941 47.6685V45.9015H20.9263V46.3463C20.6687 46.0124 20.2967 45.83 19.8198 45.83C18.8183 45.83 18.0492 46.605 18.0492 47.6685C18.0492 48.7416 18.8195 49.5118 19.8198 49.5118C20.3325 49.5118 20.7045 49.3282 20.9263 49.0015V49.4403H21.6941V47.6685ZM19.8914 46.5311C19.2284 46.5311 18.8183 47.0473 18.8183 47.6685C18.8183 48.3005 19.2284 48.7738 19.8914 48.8132C20.5137 48.8132 20.9632 48.3005 20.9632 47.6685C20.9632 47.0068 20.5149 46.5311 19.8902 46.5311H19.8914Z" fill="black"/>
</svg>
