<svg width="144" height="65" viewBox="0 0 144 65" fill="none" xmlns="http://www.w3.org/2000/svg">
<mask id="mask0_100_218" style="mask-type:luminance" maskUnits="userSpaceOnUse" x="0" y="0" width="144" height="65">
<path d="M0 0.499939H143.086V64.4999H0V0.499939Z" fill="white"/>
</mask>
<g mask="url(#mask0_100_218)">
<path fill-rule="evenodd" clip-rule="evenodd" d="M103.277 14.8885H106.991C109.155 14.8885 111.19 15.732 112.72 17.262L121.407 25.7864C121.59 25.971 121.808 26.1173 122.049 26.2169C122.289 26.3165 122.547 26.3673 122.807 26.3665C123.067 26.367 123.325 26.3161 123.565 26.2165C123.806 26.1169 124.024 25.9707 124.208 25.7864L132.861 17.294C133.612 16.5391 134.505 15.9405 135.489 15.5329C136.472 15.1254 137.527 14.9169 138.592 14.9196H141.611C141.849 14.9196 142.078 15.0145 142.247 15.1834C142.416 15.3523 142.511 15.5813 142.511 15.8202C142.511 16.059 142.416 16.2881 142.247 16.457C142.078 16.6259 141.849 16.7208 141.611 16.7208H138.592C137.764 16.7183 136.943 16.8802 136.178 17.1972C135.413 17.5141 134.719 17.9798 134.135 18.5672L125.48 27.06C125.13 27.4123 124.714 27.6916 124.255 27.8817C123.796 28.0719 123.304 28.169 122.807 28.1676C122.31 28.1689 121.818 28.0717 121.359 27.8815C120.9 27.6913 120.483 27.4119 120.133 27.0595L111.447 18.5347C110.863 17.9477 110.169 17.4824 109.404 17.1656C108.639 16.8488 107.819 16.6869 106.991 16.6892H103.277C103.157 16.6919 103.038 16.6706 102.926 16.6266C102.815 16.5826 102.713 16.5167 102.627 16.4328C102.542 16.3489 102.473 16.2488 102.427 16.1382C102.38 16.0276 102.356 15.9088 102.356 15.7889C102.356 15.6689 102.38 15.5501 102.427 15.4396C102.473 15.329 102.542 15.2288 102.627 15.1449C102.713 15.0611 102.815 14.9952 102.926 14.9512C103.038 14.9071 103.157 14.8858 103.277 14.8885ZM95.238 42.6216C95.2454 42.8553 95.3435 43.077 95.5115 43.2397C95.6795 43.4025 95.9042 43.4934 96.1381 43.4934C96.372 43.4934 96.5967 43.4025 96.7647 43.2397C96.9327 43.077 97.0308 42.8553 97.0382 42.6216V19.7859C97.0382 17.0856 94.8412 14.8885 92.1409 14.8885H88.3964C88.1576 14.8885 87.9286 14.9834 87.7598 15.1522C87.5909 15.3211 87.4961 15.5501 87.4961 15.7889C87.4961 16.0277 87.5909 16.2567 87.7598 16.4255C87.9286 16.5944 88.1576 16.6892 88.3964 16.6892H92.1409C92.9619 16.6902 93.749 17.0167 94.3296 17.5973C94.9102 18.1778 95.2369 18.9649 95.238 19.7859V42.6216ZM57.0044 53.332C57.0044 53.5706 57.0995 53.7996 57.2682 53.9688C57.4372 54.1373 57.6662 54.232 57.905 54.232C58.1437 54.232 58.3727 54.1373 58.5418 53.9688C58.7105 53.7996 58.8055 53.5706 58.8055 53.332V25.5331C58.8055 20.659 62.7708 16.6929 67.6439 16.6929L76.2757 16.7061C81.1329 16.7157 85.0839 20.6741 85.0839 25.5313V32.75C85.0839 37.6245 81.1182 41.5903 76.2437 41.5903H62.6922C62.4535 41.5906 62.2247 41.6856 62.0559 41.8545C61.8872 42.0233 61.7923 42.2521 61.7921 42.4908C61.7922 42.7295 61.887 42.9584 62.0558 43.1272C62.2246 43.2959 62.4535 43.3908 62.6922 43.3909H76.2437C82.1111 43.3909 86.8846 38.6174 86.8846 32.75V25.5317C86.8846 19.684 82.1271 14.9169 76.2789 14.905L67.6453 14.8926C61.7779 14.8926 57.0044 19.6657 57.0044 25.5331V53.332ZM106.991 43.3914H103.277C103.038 43.3914 102.809 43.2965 102.641 43.1276C102.472 42.9587 102.377 42.7297 102.377 42.4908C102.377 42.252 102.472 42.0229 102.641 41.854C102.809 41.6851 103.038 41.5903 103.277 41.5903H106.991C108.674 41.5903 110.257 40.9352 111.447 39.7448L120.133 31.22C120.483 30.8677 120.9 30.5885 121.359 30.3984C121.818 30.2084 122.31 30.1113 122.807 30.1128C123.304 30.1113 123.796 30.2085 124.255 30.3985C124.713 30.5886 125.13 30.8678 125.48 31.22L134.135 39.7128C134.719 40.2999 135.413 40.7653 136.178 41.0822C136.943 41.399 137.764 41.561 138.592 41.5587H141.611C141.849 41.5587 142.078 41.6536 142.247 41.8225C142.416 41.9914 142.511 42.2204 142.511 42.4593C142.511 42.6981 142.416 42.9272 142.247 43.0961C142.078 43.265 141.849 43.3598 141.611 43.3598H138.592C137.527 43.3629 136.472 43.1547 135.489 42.7473C134.505 42.3399 133.612 41.7414 132.861 40.9864L124.208 32.4931C124.024 32.3089 123.806 32.1628 123.565 32.0633C123.325 31.9638 123.067 31.9129 122.807 31.9135C122.547 31.9127 122.289 31.9635 122.049 32.063C121.808 32.1625 121.59 32.3087 121.407 32.4931L112.72 41.0179C111.969 41.7727 111.077 42.3711 110.093 42.7785C109.11 43.1859 108.055 43.3942 106.991 43.3914Z" fill="#98989C"/>
<path fill-rule="evenodd" clip-rule="evenodd" d="M95.3361 12.595L93.6378 10.8963C93.5374 10.7962 93.4578 10.6773 93.4035 10.5464C93.3492 10.4154 93.3214 10.2751 93.3215 10.1333C93.3214 9.99157 93.3493 9.8512 93.4035 9.72027C93.4578 9.58933 93.5375 9.47041 93.6378 9.37034L95.3352 7.67343C95.4355 7.57312 95.5545 7.49355 95.6856 7.43926C95.8166 7.38497 95.957 7.35703 96.0989 7.35703C96.2407 7.35703 96.3811 7.38497 96.5122 7.43926C96.6432 7.49355 96.7622 7.57312 96.8625 7.67343L98.5603 9.3708C98.7624 9.57331 98.8759 9.8477 98.8759 10.1338C98.8759 10.4198 98.7624 10.6942 98.5603 10.8967L96.8621 12.595C96.6596 12.7971 96.3852 12.9106 96.0991 12.9106C95.813 12.9106 95.5386 12.7971 95.3361 12.595ZM36.4753 21.2762C35.5586 21.2737 34.6504 21.453 33.8034 21.8037C32.9563 22.1543 32.1872 22.6694 31.5405 23.3191L24.3898 30.4716C24.1414 30.7195 23.8047 30.8587 23.4537 30.8586C23.1028 30.8585 22.7662 30.7192 22.5178 30.4711L15.3919 23.3457C14.7454 22.6958 13.9764 22.1807 13.1295 21.8299C12.2826 21.4792 11.3746 21.2998 10.4579 21.3022H9.59943L18.649 12.2531C21.4678 9.43434 26.0374 9.43434 28.8552 12.2531L37.8792 21.2762H36.4753ZM10.4579 46.4794C11.3745 46.4814 12.2825 46.3019 13.1293 45.9512C13.9762 45.6005 14.7451 45.0855 15.3919 44.4359L22.5165 37.3109C23.017 36.8094 23.8883 36.8103 24.3889 37.3109L31.54 44.462C32.1866 45.1119 32.9556 45.6271 33.8026 45.9779C34.6495 46.3286 35.5577 46.5079 36.4744 46.5054H37.8778L28.8547 55.5294C26.0365 58.3473 21.4669 58.3473 18.6481 55.5294L9.59897 46.4794H10.4575H10.4579ZM7.5048 23.3978L2.11371 28.7875C-0.704572 31.6058 -0.704572 36.1749 2.11371 38.9937L7.50343 44.3834L10.4575 44.3843C11.7514 44.3804 12.9916 43.8664 13.9089 42.9539L21.0349 35.8293C22.3258 34.5365 24.5791 34.5374 25.8714 35.8289L33.023 42.9795C33.9402 43.8922 35.1804 44.4064 36.4744 44.4103H39.9738L45.3901 38.9941C48.2083 36.1749 48.2083 31.6058 45.3901 28.7875L39.9743 23.3708L36.4753 23.3717C35.181 23.3751 33.9404 23.8891 33.023 24.8021L25.8719 31.9537C25.5543 32.2711 25.1772 32.5227 24.7623 32.6942C24.3473 32.8657 23.9026 32.9536 23.4536 32.953C23.0045 32.9537 22.5597 32.8657 22.1447 32.6941C21.7297 32.5224 21.3527 32.2705 21.0353 31.9527L13.9098 24.8273C12.9924 23.9146 11.752 23.4008 10.4579 23.3973L7.5048 23.3978Z" fill="#4BB8A9"/>
</g>
</svg>
