<svg width="49" height="49" viewBox="0 0 49 49" fill="none" xmlns="http://www.w3.org/2000/svg">
<path fill-rule="evenodd" clip-rule="evenodd" d="M37.3272 11.9887C36.4104 11.9862 35.5023 12.1655 34.6552 12.5162C33.8082 12.8669 33.0391 13.3819 32.3923 14.0317L25.2417 21.1841C24.9932 21.432 24.6566 21.5712 24.3056 21.5712C23.9546 21.5711 23.618 21.4317 23.3697 21.1837L16.2438 14.0582C15.5972 13.4084 14.8283 12.8932 13.9814 12.5425C13.1345 12.1917 12.2265 12.0124 11.3098 12.0148H10.4513L19.5009 2.96562C22.3196 0.146877 26.8892 0.146877 29.7071 2.96562L38.7311 11.9887H37.3272ZM11.3098 37.1919C12.2264 37.194 13.1343 37.0144 13.9812 36.6637C14.828 36.313 15.597 35.798 16.2438 35.1485L23.3683 28.0235C23.8689 27.522 24.7402 27.5229 25.2408 28.0235L32.3919 35.1745C33.0384 35.8244 33.8074 36.3397 34.6544 36.6904C35.5014 37.0412 36.4095 37.2205 37.3263 37.218H38.7297L29.7066 46.242C26.8883 49.0598 22.3187 49.0598 19.5 46.242L10.4508 37.1919H11.3098ZM8.35667 14.1103L2.96558 19.5C0.147296 22.3183 0.147296 26.8874 2.96558 29.7062L8.3553 35.0959L11.3094 35.0968C12.6033 35.0929 13.8435 34.579 14.7608 33.6664L21.8867 26.5418C23.1777 25.249 25.431 25.25 26.7233 26.5414L33.8748 33.692C34.7921 34.6048 36.0323 35.1189 37.3263 35.1229H40.8257L46.2419 29.7066C49.0602 26.8874 49.0602 22.3183 46.2419 19.5L40.8262 14.0833L37.3272 14.0842C36.0329 14.0876 34.7922 14.6016 33.8748 15.5146L26.7238 22.6662C26.4062 22.9836 26.0291 23.2353 25.6141 23.4067C25.1992 23.5782 24.7545 23.6661 24.3055 23.6655C23.8564 23.6663 23.4115 23.5783 22.9965 23.4066C22.5815 23.235 22.2045 22.983 21.8872 22.6653L14.7617 15.5398C13.8443 14.6272 12.6038 14.1133 11.3098 14.1098L8.35667 14.1103Z" fill="#4BB8A9"/>
</svg>
