<svg width="71" height="23" viewBox="0 0 71 23" fill="none" xmlns="http://www.w3.org/2000/svg">
<path d="M27.4285 1.24473L18.2652 22.5246H12.2852L7.7752 5.54288C7.50187 4.4951 7.26353 4.11233 6.43187 3.67116C5.07187 2.95426 2.82687 2.28278 0.851868 1.86269L0.985201 1.24473H10.6102C11.8369 1.24473 12.9402 2.03948 13.2185 3.41327L15.6019 15.727L21.4869 1.24311L27.4285 1.24473ZM50.8569 15.5762C50.8802 9.95942 42.8769 9.64963 42.9319 7.14211C42.9485 6.37818 43.6969 5.56558 45.3319 5.35798C46.1419 5.25579 48.3752 5.17632 50.9085 6.31168L51.9019 1.79782C50.2095 1.18019 48.4176 0.861085 46.6102 0.855469C41.0202 0.855469 37.0852 3.74739 37.0519 7.88982C37.0152 10.952 39.8602 12.6616 42.0019 13.6802C44.2069 14.7231 44.9469 15.3929 44.9385 16.3239C44.9219 17.7512 43.1802 18.3838 41.5519 18.4065C38.7085 18.4503 37.0585 17.6588 35.7435 17.0635L34.7185 21.725C36.0402 22.3154 38.4802 22.8295 41.0085 22.8555C46.9519 22.8555 50.8369 20.0009 50.8569 15.5762ZM65.6202 22.523H70.8519L66.2852 1.24473H61.4569C60.3719 1.24473 59.4569 1.86107 59.0502 2.80666L50.5619 22.5246H56.5019L57.6802 19.3456H64.9369L65.6202 22.5246V22.523ZM59.3085 14.9826L62.2869 6.99451L64.0002 14.9826H59.3085ZM35.5119 1.24473L30.8335 22.5246H25.1785L29.8569 1.24473H35.5119Z" fill="#1434CB"/>
</svg>
