<svg width="80" height="26" viewBox="0 0 80 26" fill="none" xmlns="http://www.w3.org/2000/svg">
<path d="M30.3733 0.460041L19.901 25.609H13.0667L7.91238 5.53966C7.6 4.30139 7.32762 3.84901 6.37714 3.32763C4.82286 2.48039 2.25714 1.68682 0 1.19036L0.152381 0.460041H11.1524C12.5543 0.460041 13.8152 1.39929 14.1333 3.02285L16.8571 17.5755L23.5829 0.458125L30.3733 0.460041ZM57.1486 17.3972C57.1752 10.7592 48.0286 10.3931 48.0914 7.42967C48.1105 6.52684 48.9657 5.5665 50.8343 5.32114C51.76 5.20038 54.3124 5.10646 57.2076 6.44825L58.3429 1.11368C56.4088 0.383764 54.3609 0.00663721 52.2952 0C45.9067 0 41.4095 3.41772 41.3714 8.31333C41.3295 11.9323 44.581 13.9527 47.0286 15.1564C49.5486 16.389 50.3943 17.1806 50.3848 18.2809C50.3657 19.9677 48.3752 20.7153 46.5143 20.7421C43.2648 20.7939 41.379 19.8584 39.8762 19.155L38.7048 24.664C40.2152 25.3617 43.0038 25.9693 45.8933 26C52.6857 26 57.1257 22.6264 57.1486 17.3972ZM74.021 25.607H80L74.781 0.460041H69.2629C68.0229 0.460041 66.9771 1.18844 66.5124 2.30596L56.8114 25.609H63.6L64.9467 21.852H73.24L74.021 25.609V25.607ZM66.8076 16.6957L70.2114 7.25523L72.1695 16.6957H66.8076ZM39.6114 0.460041L34.2648 25.609H27.8019L33.1486 0.460041H39.6114Z" fill="#FCFCFC"/>
</svg>
