<svg width="35" height="35" viewBox="0 0 35 35" fill="none" xmlns="http://www.w3.org/2000/svg">
<path d="M21.2191 24.1353L16.042 18.9582V11.6665H18.9587V17.755L23.2607 22.0571L21.2191 24.1353ZM16.042 8.74984V5.83317H18.9587V8.74984H16.042ZM26.2503 18.9582V16.0415H29.167V18.9582H26.2503ZM16.042 29.1665V26.2498H18.9587V29.1665H16.042ZM5.83366 18.9582V16.0415H8.75033V18.9582H5.83366ZM17.5003 32.0832C15.483 32.0832 13.5871 31.7004 11.8128 30.9347C10.0385 30.1691 8.49512 29.13 7.18262 27.8175C5.87012 26.505 4.83105 24.9616 4.06543 23.1873C3.2998 21.413 2.91699 19.5172 2.91699 17.4998C2.91699 15.4825 3.2998 13.5866 4.06543 11.8123C4.83105 10.038 5.87012 8.49463 7.18262 7.18213C8.49512 5.86963 10.0385 4.83057 11.8128 4.06494C13.5871 3.29932 15.483 2.9165 17.5003 2.9165C19.5177 2.9165 21.4135 3.29932 23.1878 4.06494C24.9621 4.83057 26.5055 5.86963 27.818 7.18213C29.1305 8.49463 30.1696 10.038 30.9352 11.8123C31.7008 13.5866 32.0837 15.4825 32.0837 17.4998C32.0837 19.5172 31.7008 21.413 30.9352 23.1873C30.1696 24.9616 29.1305 26.505 27.818 27.8175C26.5055 29.13 24.9621 30.1691 23.1878 30.9347C21.4135 31.7004 19.5177 32.0832 17.5003 32.0832ZM17.5003 29.1665C20.7573 29.1665 23.5159 28.0363 25.7764 25.7759C28.0368 23.5155 29.167 20.7568 29.167 17.4998C29.167 14.2429 28.0368 11.4842 25.7764 9.2238C23.5159 6.96338 20.7573 5.83317 17.5003 5.83317C14.2434 5.83317 11.4847 6.96338 9.22428 9.2238C6.96387 11.4842 5.83366 14.2429 5.83366 17.4998C5.83366 20.7568 6.96387 23.5155 9.22428 25.7759C11.4847 28.0363 14.2434 29.1665 17.5003 29.1665Z" fill="#127447"/>
</svg>
