<svg width="35" height="35" viewBox="0 0 35 35" fill="none" xmlns="http://www.w3.org/2000/svg">
<path d="M16.2607 32.0832C15.8962 32.0832 15.5316 32.0103 15.167 31.8644C14.8024 31.7186 14.4743 31.4998 14.1826 31.2082L3.75553 20.7811C3.46387 20.4894 3.25119 20.1674 3.11751 19.8149C2.98383 19.4625 2.91699 19.104 2.91699 18.7394C2.91699 18.3748 2.98383 18.0103 3.11751 17.6457C3.25119 17.2811 3.46387 16.953 3.75553 16.6613L16.5889 3.7915C16.8562 3.52414 17.1722 3.31147 17.5368 3.15348C17.9014 2.9955 18.2781 2.9165 18.667 2.9165H29.1305C29.9326 2.9165 30.6193 3.20209 31.1904 3.77327C31.7616 4.34446 32.0472 5.03109 32.0472 5.83317V16.2967C32.0472 16.6856 31.9743 17.0563 31.8285 17.4087C31.6826 17.7611 31.476 18.071 31.2087 18.3384L18.3389 31.2082C18.0472 31.4998 17.7191 31.7186 17.3545 31.8644C16.9899 32.0103 16.6253 32.0832 16.2607 32.0832ZM16.2607 29.1665L29.1305 16.2603V5.83317H18.7035L5.83366 18.7394L16.2607 29.1665ZM25.4847 11.6665C26.0923 11.6665 26.6088 11.4538 27.0342 11.0285C27.4595 10.6031 27.6722 10.0866 27.6722 9.479C27.6722 8.87137 27.4595 8.35487 27.0342 7.92952C26.6088 7.50418 26.0923 7.2915 25.4847 7.2915C24.8771 7.2915 24.3606 7.50418 23.9352 7.92952C23.5099 8.35487 23.2972 8.87137 23.2972 9.479C23.2972 10.0866 23.5099 10.6031 23.9352 11.0285C24.3606 11.4538 24.8771 11.6665 25.4847 11.6665Z" fill="#127447"/>
</svg>
