<svg width="54" height="52" viewBox="0 0 54 52" fill="none" xmlns="http://www.w3.org/2000/svg">
<path d="M7.94444 19.386V36.6199C7.94444 41.1285 7.94444 43.3828 8.83456 45.1047C9.61752 46.6194 10.8669 47.8508 12.4035 48.6225C14.1505 49.5 16.4373 49.5 21.0111 49.5H32.9889C37.5628 49.5 39.8494 49.5 41.5966 48.6225C43.1333 47.8508 44.3825 46.6194 45.1654 45.1047C46.0556 43.3828 46.0556 41.1285 46.0556 36.6199V6.56651M51.5 25.3499L36.7096 9.15318C33.3458 5.46956 31.664 3.62776 29.683 2.9478C27.9435 2.3506 26.0499 2.35073 24.3102 2.94821C22.3295 3.62843 20.648 5.4705 17.2848 9.1546L2.5 25.3499M32.4444 49.5V33.3999H21.5556V49.5" stroke="#127447" stroke-width="5" stroke-linecap="round" stroke-linejoin="round"/>
</svg>
