<svg width="81" height="63" viewBox="0 0 81 63" fill="none" xmlns="http://www.w3.org/2000/svg">
<path d="M22.5 53C21.2625 53 20.2031 52.5568 19.3219 51.6704C18.4406 50.784 18 49.7184 18 48.4737V23.5789C18 22.3342 18.4406 21.2686 19.3219 20.3822C20.2031 19.4958 21.2625 19.0526 22.5 19.0526H31.5V14.5263C31.5 13.2816 31.9406 12.216 32.8219 11.3296C33.7031 10.4432 34.7625 10 36 10H45C46.2375 10 47.2969 10.4432 48.1781 11.3296C49.0594 12.216 49.5 13.2816 49.5 14.5263V19.0526H58.5C59.7375 19.0526 60.7969 19.4958 61.6781 20.3822C62.5594 21.2686 63 22.3342 63 23.5789V48.4737C63 49.7184 62.5594 50.784 61.6781 51.6704C60.7969 52.5568 59.7375 53 58.5 53H22.5ZM22.5 48.4737H58.5V23.5789H22.5V48.4737ZM36 19.0526H45V14.5263H36V19.0526Z" fill="#256D43"/>
</svg>
