<svg width="58" height="54" viewBox="0 0 58 54" fill="none" xmlns="http://www.w3.org/2000/svg">
<path d="M28.9998 45C27.6707 45 26.5328 44.5594 25.5863 43.6781C24.6398 42.7969 24.1665 41.7375 24.1665 40.5C24.1665 39.2625 24.6398 38.2031 25.5863 37.3219C26.5328 36.4406 27.6707 36 28.9998 36C30.329 36 31.4669 36.4406 32.4134 37.3219C33.3599 38.2031 33.8332 39.2625 33.8332 40.5C33.8332 41.7375 33.3599 42.7969 32.4134 43.6781C31.4669 44.5594 30.329 45 28.9998 45ZM28.9998 31.5C27.6707 31.5 26.5328 31.0594 25.5863 30.1781C24.6398 29.2969 24.1665 28.2375 24.1665 27C24.1665 25.7625 24.6398 24.7031 25.5863 23.8219C26.5328 22.9406 27.6707 22.5 28.9998 22.5C30.329 22.5 31.4669 22.9406 32.4134 23.8219C33.3599 24.7031 33.8332 25.7625 33.8332 27C33.8332 28.2375 33.3599 29.2969 32.4134 30.1781C31.4669 31.0594 30.329 31.5 28.9998 31.5ZM28.9998 18C27.6707 18 26.5328 17.5594 25.5863 16.6781C24.6398 15.7969 24.1665 14.7375 24.1665 13.5C24.1665 12.2625 24.6398 11.2031 25.5863 10.3219C26.5328 9.44062 27.6707 9 28.9998 9C30.329 9 31.4669 9.44062 32.4134 10.3219C33.3599 11.2031 33.8332 12.2625 33.8332 13.5C33.8332 14.7375 33.3599 15.7969 32.4134 16.6781C31.4669 17.5594 30.329 18 28.9998 18Z" fill="#878C89"/>
</svg>
