<svg width="45" height="38" viewBox="0 0 45 38" fill="none" xmlns="http://www.w3.org/2000/svg">
<path d="M38.0769 15.5455C38.0769 16.0035 37.8945 16.4429 37.57 16.7668C37.2455 17.0907 36.8052 17.2727 36.3462 17.2727H27.6923C27.2333 17.2727 26.793 17.0907 26.4685 16.7668C26.144 16.4429 25.9615 16.0035 25.9615 15.5455C25.9615 15.0874 26.144 14.648 26.4685 14.3241C26.793 14.0002 27.2333 13.8182 27.6923 13.8182H36.3462C36.8052 13.8182 37.2455 14.0002 37.57 14.3241C37.8945 14.648 38.0769 15.0874 38.0769 15.5455ZM36.3462 20.7273H27.6923C27.2333 20.7273 26.793 20.9093 26.4685 21.2332C26.144 21.5571 25.9615 21.9965 25.9615 22.4545C25.9615 22.9126 26.144 23.352 26.4685 23.6759C26.793 23.9998 27.2333 24.1818 27.6923 24.1818H36.3462C36.8052 24.1818 37.2455 23.9998 37.57 23.6759C37.8945 23.352 38.0769 22.9126 38.0769 22.4545C38.0769 21.9965 37.8945 21.5571 37.57 21.2332C37.2455 20.9093 36.8052 20.7273 36.3462 20.7273ZM45 3.45455V34.5455C45 35.4616 44.6353 36.3403 43.9861 36.9882C43.3369 37.6361 42.4565 38 41.5385 38H3.46154C2.54349 38 1.66303 37.6361 1.01387 36.9882C0.36469 36.3403 0 35.4616 0 34.5455V3.45455C0 2.53835 0.36469 1.65967 1.01387 1.01182C1.66303 0.363954 2.54349 0 3.46154 0H41.5385C42.4565 0 43.3369 0.363954 43.9861 1.01182C44.6353 1.65967 45 2.53835 45 3.45455ZM41.5385 34.5455V3.45455H3.46154V34.5455H41.5385ZM24.1745 27.2045C24.2893 27.6483 24.2226 28.1195 23.9893 28.5142C23.756 28.909 23.3753 29.1951 22.9306 29.3097C22.4858 29.4243 22.0138 29.3578 21.6182 29.1249C21.2227 28.8921 20.9359 28.5119 20.8212 28.0682C20.2523 25.853 17.9957 24.1818 15.5747 24.1818C13.1538 24.1818 10.8995 25.853 10.3284 28.0682C10.2136 28.5119 9.9269 28.8921 9.53131 29.1249C9.13573 29.3578 8.66368 29.4243 8.21899 29.3097C7.7743 29.1951 7.39343 28.909 7.16012 28.5142C6.92683 28.1195 6.86025 27.6483 6.975 27.2045C7.53663 25.1183 8.86426 23.3194 10.694 22.1652C9.72166 21.2005 9.05821 19.9697 8.78774 18.6283C8.51727 17.2869 8.65196 15.8956 9.17474 14.6307C9.69752 13.3658 10.5848 12.2844 11.7242 11.5233C12.8636 10.7625 14.2037 10.3562 15.5747 10.3562C16.9458 10.3562 18.2859 10.7625 19.4253 11.5233C20.5647 12.2844 21.452 13.3658 21.9747 14.6307C22.4976 15.8956 22.6322 17.2869 22.3617 18.6283C22.0914 19.9697 21.4278 21.2005 20.4556 22.1652C22.2873 23.3177 23.616 25.1173 24.1768 27.2045H24.1745ZM15.5769 20.7273C16.2616 20.7273 16.9307 20.5247 17.5 20.145C18.0692 19.7655 18.513 19.2259 18.775 18.5948C19.0369 17.9635 19.1054 17.2689 18.972 16.5987C18.8384 15.9287 18.5087 15.3131 18.0246 14.83C17.5405 14.3469 16.9236 14.0179 16.2523 13.8845C15.5807 13.7513 14.8848 13.8197 14.2522 14.0811C13.6198 14.3426 13.0791 14.7855 12.6988 15.3536C12.3184 15.9217 12.1154 16.5894 12.1154 17.2727C12.1154 18.1889 12.4801 19.0675 13.1293 19.7154C13.7785 20.3633 14.6589 20.7273 15.5769 20.7273Z" fill="#127447"/>
</svg>
