<svg width="30" height="30" viewBox="0 0 30 30" fill="none" xmlns="http://www.w3.org/2000/svg">
<rect x="1" y="1" width="28" height="28" rx="14" fill="#D4D9D6"/>
<rect x="1" y="1" width="28" height="28" rx="14" stroke="#127447" stroke-width="2"/>
<path d="M17.8175 9.9423L20.039 12.1426M8 22L8.03727 21.7416C8.16915 20.8273 8.23509 20.3701 8.38508 19.9432C8.51818 19.5645 8.69999 19.2043 8.92605 18.8716C9.1808 18.4967 9.5105 18.1701 10.1699 17.517L19.3184 8.4557C19.9319 7.8481 20.9265 7.8481 21.5399 8.4557C22.1534 9.0633 22.1534 10.0484 21.5399 10.656L12.2235 19.8836C11.6253 20.4761 11.3262 20.7724 10.9855 21.0079C10.6831 21.217 10.357 21.3903 10.0138 21.5241C9.62715 21.6748 9.21249 21.7577 8.38323 21.9234L8 22Z" stroke="#127447" stroke-linecap="round" stroke-linejoin="round"/>
</svg>
