<svg width="37" height="37" viewBox="0 0 37 37" fill="none" xmlns="http://www.w3.org/2000/svg">
<path d="M25.3426 6.21703L30.7376 11.5606M1.5 35.5L1.59051 34.8724C1.91079 32.6519 2.07093 31.5416 2.4352 30.505C2.75843 29.5851 3.19999 28.7104 3.74898 27.9026C4.36766 26.9919 5.16837 26.1988 6.76976 24.6128L28.9875 2.6067C30.4774 1.1311 32.8928 1.1311 34.3827 2.6067C35.8724 4.0823 35.8724 6.47472 34.3827 7.95032L11.7571 30.3601C10.3043 31.7991 9.57795 32.5186 8.75056 33.0906C8.01615 33.5985 7.22409 34.0192 6.39063 34.3442C5.45166 34.7103 4.44461 34.9115 2.4307 35.3139L1.5 35.5Z" stroke="#127447" stroke-width="3" stroke-linecap="round" stroke-linejoin="round"/>
</svg>
