<svg width="45" height="60" viewBox="0 0 45 60" fill="none" xmlns="http://www.w3.org/2000/svg">
<path d="M22.4925 0C10.0933 0 5.41027e-06 9.72404 0 21.6695C-7.72895e-06 42.6882 21.2244 58.6675 21.2244 58.6675C21.5867 58.946 22.0365 59.0977 22.5 59.0977C22.9635 59.0977 23.4133 58.946 23.7756 58.6675C23.7756 58.6675 45 42.6882 45 21.6695C45 9.72404 34.8916 0 22.4925 0ZM22.4925 3.94122C32.6812 3.94122 40.9091 11.8535 40.9091 21.6695C40.9091 38.8645 24.7474 52.4499 22.5075 54.29C20.2784 52.4591 4.0909 38.8712 4.09091 21.6695C4.09091 11.8535 12.3037 3.94122 22.4925 3.94122Z" fill="#127447"/>
<path d="M22.4922 11.8232C16.8694 11.8232 12.2725 16.252 12.2725 21.669C12.2724 27.0861 16.8694 31.5294 22.4922 31.5294C28.115 31.5294 32.727 27.0861 32.727 21.669C32.727 16.252 28.1149 11.8232 22.4922 11.8232ZM22.4922 15.7645C25.9046 15.7645 28.6361 18.3815 28.6361 21.669C28.6361 24.9566 25.9046 27.5881 22.4922 27.5881C19.0798 27.5881 16.3633 24.9566 16.3634 21.669C16.3634 18.3815 19.0798 15.7645 22.4922 15.7645Z" fill="#127447"/>
</svg>
