<svg width="89" height="89" viewBox="0 0 89 89" fill="none" xmlns="http://www.w3.org/2000/svg">
<rect x="1.5" y="1.5" width="86" height="86" rx="43" stroke="#127447" stroke-width="3"/>
<path fill-rule="evenodd" clip-rule="evenodd" d="M59.2657 62.5H29.7359C28.1465 62.5 26.9728 60.9317 27.5723 59.4895C30.3537 52.8205 36.8881 49 44.4997 49C52.1135 49 58.6479 52.8205 61.4293 59.4895C62.0288 60.9317 60.8551 62.5 59.2657 62.5ZM35.3125 35.5C35.3125 30.5365 39.4352 26.5 44.4997 26.5C49.5664 26.5 53.6868 30.5365 53.6868 35.5C53.6868 40.4635 49.5664 44.5 44.4997 44.5C39.4352 44.5 35.3125 40.4635 35.3125 35.5ZM66.9003 61.681C65.2305 54.1232 60.0076 48.5454 53.1333 46.0142C56.776 43.1409 58.9005 38.4946 58.1196 33.4074C57.2147 27.5056 52.2031 22.7829 46.1534 22.0944C37.8022 21.1427 30.7189 27.5102 30.7189 35.5C30.7189 39.7525 32.7309 43.5414 35.8683 46.0142C28.9917 48.5454 23.7711 54.1232 22.0991 61.681C21.4927 64.4282 23.7527 67 26.6214 67H62.3779C65.2489 67 67.5089 64.4282 66.9003 61.681Z" fill="#127447"/>
</svg>
