<svg width="40" height="41" viewBox="0 0 40 41" fill="none" xmlns="http://www.w3.org/2000/svg">
<path d="M9.99999 36.9167C9.08332 36.9167 8.2986 36.5903 7.64582 35.9375C6.99305 35.2848 6.66666 34.5 6.66666 33.5834V13.5834C6.66666 12.6667 6.99305 11.882 7.64582 11.2292C8.2986 10.5764 9.08332 10.25 9.99999 10.25H13.3333C13.3333 8.41671 13.9861 6.84726 15.2917 5.54171C16.5972 4.23615 18.1667 3.58337 20 3.58337C21.8333 3.58337 23.4028 4.23615 24.7083 5.54171C26.0139 6.84726 26.6667 8.41671 26.6667 10.25H30C30.9167 10.25 31.7014 10.5764 32.3542 11.2292C33.0069 11.882 33.3333 12.6667 33.3333 13.5834V33.5834C33.3333 34.5 33.0069 35.2848 32.3542 35.9375C31.7014 36.5903 30.9167 36.9167 30 36.9167H9.99999ZM9.99999 33.5834H30V13.5834H26.6667V16.9167C26.6667 17.3889 26.5069 17.7848 26.1875 18.1042C25.868 18.4237 25.4722 18.5834 25 18.5834C24.5278 18.5834 24.1319 18.4237 23.8125 18.1042C23.493 17.7848 23.3333 17.3889 23.3333 16.9167V13.5834H16.6667V16.9167C16.6667 17.3889 16.5069 17.7848 16.1875 18.1042C15.868 18.4237 15.4722 18.5834 15 18.5834C14.5278 18.5834 14.1319 18.4237 13.8125 18.1042C13.493 17.7848 13.3333 17.3889 13.3333 16.9167V13.5834H9.99999V33.5834ZM16.6667 10.25H23.3333C23.3333 9.33337 23.0069 8.54865 22.3542 7.89587C21.7014 7.2431 20.9167 6.91671 20 6.91671C19.0833 6.91671 18.2986 7.2431 17.6458 7.89587C16.993 8.54865 16.6667 9.33337 16.6667 10.25Z" fill="#26573A"/>
</svg>
