<svg width="74" height="77" viewBox="0 0 74 77" fill="none" xmlns="http://www.w3.org/2000/svg">
<rect x="1.5" y="1.5" width="71" height="73.25" rx="35.5" stroke="#256D43" stroke-width="3"/>
<path d="M37 37C41.1421 37 44.5 33.6421 44.5 29.5C44.5 25.3579 41.1421 22 37 22C32.8579 22 29.5 25.3579 29.5 29.5C29.5 33.6421 32.8579 37 37 37Z" stroke="#256D43" stroke-width="3" stroke-linecap="round" stroke-linejoin="round"/>
<path d="M52 54.25V50.5C52 48.5109 51.2098 46.6032 49.8033 45.1967C48.3968 43.7902 46.4891 43 44.5 43H29.5C27.5109 43 25.6032 43.7902 24.1967 45.1967C22.7902 46.6032 22 48.5109 22 50.5V54.25" stroke="#256D43" stroke-width="3" stroke-linecap="round" stroke-linejoin="round"/>
</svg>
