<svg width="33" height="33" viewBox="0 0 33 33" fill="none" xmlns="http://www.w3.org/2000/svg">
<path d="M28.8519 6.35547H4.85187C4.32143 6.35547 3.81273 6.56618 3.43765 6.94126C3.06258 7.31633 2.85187 7.82504 2.85187 8.35547V24.3555C2.85187 24.8859 3.06258 25.3946 3.43765 25.7697C3.81273 26.1448 4.32143 26.3555 4.85187 26.3555H28.8519C29.3823 26.3555 29.891 26.1448 30.2661 25.7697C30.6412 25.3946 30.8519 24.8859 30.8519 24.3555V8.35547C30.8519 7.82504 30.6412 7.31633 30.2661 6.94126C29.891 6.56618 29.3823 6.35547 28.8519 6.35547ZM28.8519 8.35547V11.3555H4.85187V8.35547H28.8519ZM28.8519 24.3555H4.85187V13.3555H28.8519V24.3555ZM26.8519 21.3555C26.8519 21.6207 26.7465 21.875 26.559 22.0626C26.3714 22.2501 26.1171 22.3555 25.8519 22.3555H21.8519C21.5867 22.3555 21.3323 22.2501 21.1448 22.0626C20.9572 21.875 20.8519 21.6207 20.8519 21.3555C20.8519 21.0903 20.9572 20.8359 21.1448 20.6484C21.3323 20.4608 21.5867 20.3555 21.8519 20.3555H25.8519C26.1171 20.3555 26.3714 20.4608 26.559 20.6484C26.7465 20.8359 26.8519 21.0903 26.8519 21.3555ZM18.8519 21.3555C18.8519 21.6207 18.7465 21.875 18.559 22.0626C18.3714 22.2501 18.1171 22.3555 17.8519 22.3555H15.8519C15.5867 22.3555 15.3323 22.2501 15.1448 22.0626C14.9572 21.875 14.8519 21.6207 14.8519 21.3555C14.8519 21.0903 14.9572 20.8359 15.1448 20.6484C15.3323 20.4608 15.5867 20.3555 15.8519 20.3555H17.8519C18.1171 20.3555 18.3714 20.4608 18.559 20.6484C18.7465 20.8359 18.8519 21.0903 18.8519 21.3555Z" fill="black"/>
</svg>
