<svg width="21" height="21" viewBox="0 0 21 21" fill="none" xmlns="http://www.w3.org/2000/svg">
<path d="M10.1618 8.11905V5.2619H7.26328V3.35714H10.1618V0.5H12.0942V3.35714H14.9928V5.2619H12.0942V8.11905H10.1618ZM6.2971 20.5C5.7657 20.5 5.31079 20.3135 4.93237 19.9405C4.55395 19.5675 4.36473 19.119 4.36473 18.5952C4.36473 18.0714 4.55395 17.623 4.93237 17.25C5.31079 16.877 5.7657 16.6905 6.2971 16.6905C6.8285 16.6905 7.28341 16.877 7.66184 17.25C8.04026 17.623 8.22947 18.0714 8.22947 18.5952C8.22947 19.119 8.04026 19.5675 7.66184 19.9405C7.28341 20.3135 6.8285 20.5 6.2971 20.5ZM15.9589 20.5C15.4275 20.5 14.9726 20.3135 14.5942 19.9405C14.2158 19.5675 14.0266 19.119 14.0266 18.5952C14.0266 18.0714 14.2158 17.623 14.5942 17.25C14.9726 16.877 15.4275 16.6905 15.9589 16.6905C16.4903 16.6905 16.9452 16.877 17.3237 17.25C17.7021 17.623 17.8913 18.0714 17.8913 18.5952C17.8913 19.119 17.7021 19.5675 17.3237 19.9405C16.9452 20.3135 16.4903 20.5 15.9589 20.5ZM0.5 3.35714V1.45238H3.66425L7.77053 10.0238H14.5338L18.3019 3.35714H20.5L16.2488 10.9286C16.0717 11.246 15.8341 11.4921 15.5362 11.6667C15.2383 11.8413 14.9122 11.9286 14.558 11.9286H7.3599L6.2971 13.8333H17.8913V15.7381H6.2971C5.57246 15.7381 5.02093 15.4286 4.64251 14.8095C4.26409 14.1905 4.25201 13.5635 4.60628 12.9286L5.91063 10.5952L2.43237 3.35714H0.5Z" fill="#F5F5F5"/>
</svg>
