<svg width="24" height="26" viewBox="0 0 24 26" fill="none" xmlns="http://www.w3.org/2000/svg">
<path d="M7.9881 23.207C7.41518 23.207 6.92473 23.003 6.51674 22.595C6.10876 22.187 5.90476 21.6966 5.90476 21.1236C5.90476 20.5507 6.10876 20.0603 6.51674 19.6523C6.92473 19.2443 7.41518 19.0403 7.9881 19.0403C8.56101 19.0403 9.05147 19.2443 9.45945 19.6523C9.86744 20.0603 10.0714 20.5507 10.0714 21.1236C10.0714 21.6966 9.86744 22.187 9.45945 22.595C9.05147 23.003 8.56101 23.207 7.9881 23.207ZM18.4048 23.207C17.8318 23.207 17.3414 23.003 16.9334 22.595C16.5254 22.187 16.3214 21.6966 16.3214 21.1236C16.3214 20.5507 16.5254 20.0603 16.9334 19.6523C17.3414 19.2443 17.8318 19.0403 18.4048 19.0403C18.9777 19.0403 19.4681 19.2443 19.8761 19.6523C20.2841 20.0603 20.4881 20.5507 20.4881 21.1236C20.4881 21.6966 20.2841 22.187 19.8761 22.595C19.4681 23.003 18.9777 23.207 18.4048 23.207ZM7.10268 6.54031L9.60268 11.7486H16.8943L19.7589 6.54031H7.10268ZM6.1131 4.45698H21.4777C21.877 4.45698 22.1808 4.63493 22.3891 4.99083C22.5975 5.34673 22.6062 5.70698 22.4152 6.07156L18.7173 12.7382C18.5263 13.0854 18.2702 13.3545 17.949 13.5455C17.6279 13.7365 17.2763 13.832 16.8943 13.832H9.13393L7.9881 15.9153H20.4881V17.9986H7.9881C7.20685 17.9986 6.61657 17.6558 6.21726 16.97C5.81796 16.2842 5.8006 15.6028 6.16518 14.9257L7.57143 12.3736L3.82143 4.45698H1.7381V2.37364H5.12351L6.1131 4.45698Z" fill="#F5F5F5"/>
</svg>
