<svg width="46" height="46" viewBox="0 0 46 46" fill="none" xmlns="http://www.w3.org/2000/svg">
<rect x="0.290009" y="0.290009" width="45" height="45" rx="22.5" fill="#26573A"/>
<path d="M22.4518 20.4091V17.5519H19.5533V15.6472H22.4518V12.79H24.3842V15.6472H27.2828V17.5519H24.3842V20.4091H22.4518ZM18.5871 32.79C18.0557 32.79 17.6008 32.6035 17.2224 32.2305C16.844 31.8575 16.6547 31.4091 16.6547 30.8852C16.6547 30.3614 16.844 29.913 17.2224 29.54C17.6008 29.167 18.0557 28.9805 18.5871 28.9805C19.1185 28.9805 19.5734 29.167 19.9518 29.54C20.3303 29.913 20.5195 30.3614 20.5195 30.8852C20.5195 31.4091 20.3303 31.8575 19.9518 32.2305C19.5734 32.6035 19.1185 32.79 18.5871 32.79ZM28.2489 32.79C27.7175 32.79 27.2626 32.6035 26.8842 32.2305C26.5058 31.8575 26.3166 31.4091 26.3166 30.8852C26.3166 30.3614 26.5058 29.913 26.8842 29.54C27.2626 29.167 27.7175 28.9805 28.2489 28.9805C28.7803 28.9805 29.2353 29.167 29.6137 29.54C29.9921 29.913 30.1813 30.3614 30.1813 30.8852C30.1813 31.4091 29.9921 31.8575 29.6137 32.2305C29.2353 32.6035 28.7803 32.79 28.2489 32.79ZM12.79 15.6472V13.7424H15.9543L20.0605 22.3138H26.8238L30.5919 15.6472H32.79L28.5388 23.2186C28.3617 23.536 28.1241 23.7821 27.8262 23.9567C27.5283 24.1313 27.2022 24.2186 26.848 24.2186H19.6499L18.5871 26.1233H30.1813V28.0281H18.5871C17.8625 28.0281 17.3109 27.7186 16.9325 27.0995C16.5541 26.4805 16.542 25.8535 16.8963 25.2186L18.2006 22.8852L14.7224 15.6472H12.79Z" fill="#F5F5F5"/>
</svg>
