<svg width="21" height="21" viewBox="0 0 21 21" fill="none" xmlns="http://www.w3.org/2000/svg">
<path d="M10.4519 7.90909V5.05194H7.55332V3.14718H10.4519V0.290039H12.3842V3.14718H15.2828V5.05194H12.3842V7.90909H10.4519ZM6.58714 20.29C6.05574 20.29 5.60083 20.1035 5.22241 19.7305C4.84398 19.3575 4.65477 18.9091 4.65477 18.3853C4.65477 17.8615 4.84398 17.4131 5.22241 17.04C5.60083 16.667 6.05574 16.4805 6.58714 16.4805C7.11854 16.4805 7.57345 16.667 7.95187 17.04C8.3303 17.4131 8.51951 17.8615 8.51951 18.3853C8.51951 18.9091 8.3303 19.3575 7.95187 19.7305C7.57345 20.1035 7.11854 20.29 6.58714 20.29ZM16.249 20.29C15.7176 20.29 15.2627 20.1035 14.8842 19.7305C14.5058 19.3575 14.3166 18.9091 14.3166 18.3853C14.3166 17.8615 14.5058 17.4131 14.8842 17.04C15.2627 16.667 15.7176 16.4805 16.249 16.4805C16.7804 16.4805 17.2353 16.667 17.6137 17.04C17.9921 17.4131 18.1813 17.8615 18.1813 18.3853C18.1813 18.9091 17.9921 19.3575 17.6137 19.7305C17.2353 20.1035 16.7804 20.29 16.249 20.29ZM0.790039 3.14718V1.24242H3.95429L8.06057 9.81385H14.8239L18.592 3.14718H20.79L16.5388 10.7186C16.3617 11.0361 16.1242 11.2821 15.8263 11.4567C15.5284 11.6313 15.2023 11.7186 14.848 11.7186H7.64994L6.58714 13.6234H18.1813V15.5281H6.58714C5.8625 15.5281 5.31097 15.2186 4.93255 14.5996C4.55413 13.9805 4.54205 13.3535 4.89632 12.7186L6.20067 10.3853L2.72241 3.14718H0.790039Z" fill="#F5F5F5"/>
</svg>
