<svg width="30" height="30" viewBox="0 0 30 30" fill="none" xmlns="http://www.w3.org/2000/svg">
<g clip-path="url(#clip0_978_627)">
<path d="M12.7053 21.8313L23.2995 11.2895L21.1957 9.19606L12.7053 17.6445L8.42254 13.3829L6.31872 15.4763L12.7053 21.8313ZM14.8091 29.9059C12.7304 29.9059 10.7768 29.5134 8.9485 28.7283C7.12018 27.9433 5.52979 26.8779 4.17734 25.5321C2.82488 24.1864 1.75419 22.6039 0.965258 20.7846C0.176326 18.9653 -0.21814 17.0214 -0.21814 14.9529C-0.21814 12.8845 0.176326 10.9406 0.965258 9.12129C1.75419 7.30202 2.82488 5.7195 4.17734 4.37374C5.52979 3.02797 7.12018 1.96257 8.9485 1.17754C10.7768 0.392515 12.7304 0 14.8091 0C16.8879 0 18.8415 0.392515 20.6698 1.17754C22.4981 1.96257 24.0885 3.02797 25.4409 4.37374C26.7934 5.7195 27.8641 7.30202 28.653 9.12129C29.4419 10.9406 29.8364 12.8845 29.8364 14.9529C29.8364 17.0214 29.4419 18.9653 28.653 20.7846C27.8641 22.6039 26.7934 24.1864 25.4409 25.5321C24.0885 26.8779 22.4981 27.9433 20.6698 28.7283C18.8415 29.5134 16.8879 29.9059 14.8091 29.9059ZM14.8091 26.9153C18.1652 26.9153 21.0079 25.7564 23.3371 23.4387C25.6663 21.121 26.831 18.2924 26.831 14.9529C26.831 11.6135 25.6663 8.78485 23.3371 6.46715C21.0079 4.14944 18.1652 2.99059 14.8091 2.99059C11.453 2.99059 8.61038 4.14944 6.28116 6.46715C3.95193 8.78485 2.78731 11.6135 2.78731 14.9529C2.78731 18.2924 3.95193 21.121 6.28116 23.4387C8.61038 25.7564 11.453 26.9153 14.8091 26.9153Z" fill="#1FBE75"/>
</g>
<defs>
<clipPath id="clip0_978_627">
<rect width="30" height="30" fill="white"/>
</clipPath>
</defs>
</svg>
