<svg width="81" height="82" viewBox="0 0 81 82" fill="none" xmlns="http://www.w3.org/2000/svg">
<rect x="1.5" y="1.5" width="71" height="73.25" rx="35.5" stroke="#256D43" stroke-width="3"/>
<path d="M37 37C41.1421 37 44.5 33.6421 44.5 29.5C44.5 25.3579 41.1421 22 37 22C32.8579 22 29.5 25.3579 29.5 29.5C29.5 33.6421 32.8579 37 37 37Z" stroke="#256D43" stroke-width="3" stroke-linecap="round" stroke-linejoin="round"/>
<path d="M52 54.25V50.5C52 48.5109 51.2098 46.6032 49.8033 45.1967C48.3968 43.7902 46.4891 43 44.5 43H29.5C27.5109 43 25.6032 43.7902 24.1967 45.1967C22.7902 46.6032 22 48.5109 22 50.5V54.25" stroke="#256D43" stroke-width="3" stroke-linecap="round" stroke-linejoin="round"/>
<rect x="52" y="53" width="28" height="28" rx="14" fill="#D4D9D6"/>
<rect x="52" y="53" width="28" height="28" rx="14" stroke="#256D43" stroke-width="2"/>
<path d="M59 74H60.425L70.2 64.225L68.775 62.8L59 72.575V74ZM57 76V71.75L70.2 58.575C70.4 58.3917 70.6208 58.25 70.8625 58.15C71.1042 58.05 71.3583 58 71.625 58C71.8917 58 72.15 58.05 72.4 58.15C72.65 58.25 72.8667 58.4 73.05 58.6L74.425 60C74.625 60.1833 74.7708 60.4 74.8625 60.65C74.9542 60.9 75 61.15 75 61.4C75 61.6667 74.9542 61.9208 74.8625 62.1625C74.7708 62.4042 74.625 62.625 74.425 62.825L61.25 76H57ZM69.475 63.525L68.775 62.8L70.2 64.225L69.475 63.525Z" fill="#256D43"/>
</svg>
