<svg width="81" height="52" viewBox="0 0 81 52" fill="none" xmlns="http://www.w3.org/2000/svg">
<path d="M59.7857 10H21.2143C20.3618 10 19.5442 10.3371 18.9414 10.9373C18.3386 11.5374 18 12.3513 18 13.2V38.8C18 39.6487 18.3386 40.4626 18.9414 41.0627C19.5442 41.6629 20.3618 42 21.2143 42H59.7857C60.6382 42 61.4558 41.6629 62.0586 41.0627C62.6614 40.4626 63 39.6487 63 38.8V13.2C63 12.3513 62.6614 11.5374 62.0586 10.9373C61.4558 10.3371 60.6382 10 59.7857 10ZM59.7857 13.2V18H21.2143V13.2H59.7857ZM59.7857 38.8H21.2143V21.2H59.7857V38.8ZM56.5714 34C56.5714 34.4243 56.4021 34.8313 56.1007 35.1314C55.7993 35.4314 55.3905 35.6 54.9643 35.6H48.5357C48.1095 35.6 47.7007 35.4314 47.3993 35.1314C47.0979 34.8313 46.9286 34.4243 46.9286 34C46.9286 33.5757 47.0979 33.1687 47.3993 32.8686C47.7007 32.5686 48.1095 32.4 48.5357 32.4H54.9643C55.3905 32.4 55.7993 32.5686 56.1007 32.8686C56.4021 33.1687 56.5714 33.5757 56.5714 34ZM43.7143 34C43.7143 34.4243 43.545 34.8313 43.2436 35.1314C42.9422 35.4314 42.5334 35.6 42.1071 35.6H38.8929C38.4666 35.6 38.0578 35.4314 37.7564 35.1314C37.455 34.8313 37.2857 34.4243 37.2857 34C37.2857 33.5757 37.455 33.1687 37.7564 32.8686C38.0578 32.5686 38.4666 32.4 38.8929 32.4H42.1071C42.5334 32.4 42.9422 32.5686 43.2436 32.8686C43.545 33.1687 43.7143 33.5757 43.7143 34Z" fill="#256D43"/>
</svg>
