<svg width="81" height="58" viewBox="0 0 81 58" fill="none" xmlns="http://www.w3.org/2000/svg">
<path d="M56.0769 25.5455C56.0769 26.0035 55.8945 26.4429 55.57 26.7668C55.2455 27.0907 54.8052 27.2727 54.3462 27.2727H45.6923C45.2333 27.2727 44.793 27.0907 44.4685 26.7668C44.144 26.4429 43.9615 26.0035 43.9615 25.5455C43.9615 25.0874 44.144 24.648 44.4685 24.3241C44.793 24.0002 45.2333 23.8182 45.6923 23.8182H54.3462C54.8052 23.8182 55.2455 24.0002 55.57 24.3241C55.8945 24.648 56.0769 25.0874 56.0769 25.5455ZM54.3462 30.7273H45.6923C45.2333 30.7273 44.793 30.9093 44.4685 31.2332C44.144 31.5571 43.9615 31.9965 43.9615 32.4545C43.9615 32.9126 44.144 33.352 44.4685 33.6759C44.793 33.9998 45.2333 34.1818 45.6923 34.1818H54.3462C54.8052 34.1818 55.2455 33.9998 55.57 33.6759C55.8945 33.352 56.0769 32.9126 56.0769 32.4545C56.0769 31.9965 55.8945 31.5571 55.57 31.2332C55.2455 30.9093 54.8052 30.7273 54.3462 30.7273ZM63 13.4545V44.5455C63 45.4616 62.6353 46.3403 61.9861 46.9882C61.3369 47.6361 60.4565 48 59.5385 48H21.4615C20.5435 48 19.663 47.6361 19.0139 46.9882C18.3647 46.3403 18 45.4616 18 44.5455V13.4545C18 12.5383 18.3647 11.6597 19.0139 11.0118C19.663 10.364 20.5435 10 21.4615 10H59.5385C60.4565 10 61.3369 10.364 61.9861 11.0118C62.6353 11.6597 63 12.5383 63 13.4545ZM59.5385 44.5455V13.4545H21.4615V44.5455H59.5385ZM42.1745 37.2045C42.2893 37.6483 42.2226 38.1195 41.9893 38.5142C41.756 38.909 41.3753 39.1951 40.9306 39.3097C40.4858 39.4243 40.0138 39.3578 39.6182 39.1249C39.2227 38.8921 38.9359 38.5119 38.8212 38.0682C38.2523 35.853 35.9957 34.1818 33.5747 34.1818C31.1538 34.1818 28.8995 35.853 28.3284 38.0682C28.2136 38.5119 27.9269 38.8921 27.5313 39.1249C27.1357 39.3578 26.6637 39.4243 26.219 39.3097C25.7743 39.1951 25.3934 38.909 25.1601 38.5142C24.9268 38.1195 24.8603 37.6483 24.975 37.2045C25.5366 35.1183 26.8643 33.3194 28.694 32.1652C27.7217 31.2005 27.0582 29.9697 26.7877 28.6283C26.5173 27.2869 26.652 25.8956 27.1747 24.6307C27.6975 23.3658 28.5848 22.2844 29.7242 21.5233C30.8636 20.7625 32.2037 20.3562 33.5747 20.3562C34.9458 20.3562 36.2859 20.7625 37.4253 21.5233C38.5647 22.2844 39.452 23.3658 39.9747 24.6307C40.4976 25.8956 40.6322 27.2869 40.3617 28.6283C40.0914 29.9697 39.4278 31.2005 38.4556 32.1652C40.2873 33.3177 41.616 35.1173 42.1768 37.2045H42.1745ZM33.5769 30.7273C34.2616 30.7273 34.9307 30.5247 35.5 30.145C36.0692 29.7655 36.513 29.2259 36.775 28.5948C37.0369 27.9635 37.1054 27.2689 36.972 26.5987C36.8384 25.9287 36.5087 25.3131 36.0246 24.83C35.5405 24.3469 34.9236 24.0179 34.2523 23.8845C33.5807 23.7513 32.8848 23.8197 32.2522 24.0811C31.6198 24.3426 31.0791 24.7855 30.6988 25.3536C30.3184 25.9217 30.1154 26.5894 30.1154 27.2727C30.1154 28.1889 30.4801 29.0675 31.1293 29.7154C31.7785 30.3633 32.6589 30.7273 33.5769 30.7273Z" fill="#256D43"/>
</svg>
