<svg width="81" height="76" viewBox="0 0 81 76" fill="none" xmlns="http://www.w3.org/2000/svg">
<path d="M32.0625 40.75H37.6875V33.1875H43.3125V40.75H48.9375V27.6875L40.5 22.1875L32.0625 27.6875V40.75ZM40.5 58.2125C46.2188 53.0792 50.4609 48.4156 53.2266 44.2219C55.9922 40.0281 57.375 36.3042 57.375 33.05C57.375 28.0542 55.7461 23.9635 52.4883 20.7781C49.2305 17.5927 45.2344 16 40.5 16C35.7656 16 31.7695 17.5927 28.5117 20.7781C25.2539 23.9635 23.625 28.0542 23.625 33.05C23.625 36.3042 25.0078 40.0281 27.7734 44.2219C30.5391 48.4156 34.7812 53.0792 40.5 58.2125ZM40.5 65.5C32.9531 59.2208 27.3164 53.3885 23.5898 48.0031C19.8633 42.6177 18 37.6333 18 33.05C18 26.175 20.2617 20.6979 24.7852 16.6188C29.3086 12.5396 34.5469 10.5 40.5 10.5C46.4531 10.5 51.6914 12.5396 56.2148 16.6188C60.7383 20.6979 63 26.175 63 33.05C63 37.6333 61.1367 42.6177 57.4102 48.0031C53.6836 53.3885 48.0469 59.2208 40.5 65.5Z" fill="#256D43"/>
</svg>
