<svg width="50" height="50" viewBox="0 0 50 50" fill="none" xmlns="http://www.w3.org/2000/svg">
<path d="M13.3333 36.6667H15.7083L32 20.375L29.625 18L13.3333 34.2917V36.6667ZM10 40V32.9167L32 10.9583C32.3333 10.6528 32.7014 10.4167 33.1042 10.25C33.5069 10.0833 33.9306 10 34.375 10C34.8194 10 35.25 10.0833 35.6667 10.25C36.0833 10.4167 36.4444 10.6667 36.75 11L39.0417 13.3333C39.375 13.6389 39.6181 14 39.7708 14.4167C39.9236 14.8333 40 15.25 40 15.6667C40 16.1111 39.9236 16.5347 39.7708 16.9375C39.6181 17.3403 39.375 17.7083 39.0417 18.0417L17.0833 40H10ZM30.7917 19.2083L29.625 18L32 20.375L30.7917 19.2083Z" fill="#2F3331"/>
</svg>
