<svg width="40" height="41" viewBox="0 0 40 41" fill="none" xmlns="http://www.w3.org/2000/svg">
<path d="M20 35.25C16.1667 35.25 12.8264 33.9792 9.97917 31.4375C7.13194 28.8958 5.5 25.7222 5.08333 21.9167H8.5C8.88889 24.8056 10.1736 27.1944 12.3542 29.0833C14.5347 30.9722 17.0833 31.9167 20 31.9167C23.25 31.9167 26.0069 30.7847 28.2708 28.5208C30.5347 26.2569 31.6667 23.5 31.6667 20.25C31.6667 17 30.5347 14.2431 28.2708 11.9792C26.0069 9.71528 23.25 8.58333 20 8.58333C18.0833 8.58333 16.2917 9.02778 14.625 9.91667C12.9583 10.8056 11.5556 12.0278 10.4167 13.5833H15V16.9167H5V6.91667H8.33333V10.8333C9.75 9.05556 11.4792 7.68056 13.5208 6.70833C15.5625 5.73611 17.7222 5.25 20 5.25C22.0833 5.25 24.0347 5.64583 25.8542 6.4375C27.6736 7.22917 29.2569 8.29861 30.6042 9.64583C31.9514 10.9931 33.0208 12.5764 33.8125 14.3958C34.6042 16.2153 35 18.1667 35 20.25C35 22.3333 34.6042 24.2847 33.8125 26.1042C33.0208 27.9236 31.9514 29.5069 30.6042 30.8542C29.2569 32.2014 27.6736 33.2708 25.8542 34.0625C24.0347 34.8542 22.0833 35.25 20 35.25ZM24.6667 27.25L18.3333 20.9167V11.9167H21.6667V19.5833L27 24.9167L24.6667 27.25Z" fill="#26573A"/>
</svg>
