<svg width="40" height="40" viewBox="0 0 40 40" fill="none" xmlns="http://www.w3.org/2000/svg">
<path d="M2.11768 11.1316C3.38396 8.55282 5.17309 6.37321 7.42789 4.56086C10.4833 2.09384 13.988 0.608831 17.9176 0.153749C22.5334 -0.381173 26.8714 0.473105 30.8827 2.82037C31.8794 3.4032 32.8107 4.06586 33.7012 4.78441C33.9218 4.96006 33.8973 5.06385 33.7094 5.2395C31.8876 7.01192 30.0657 8.78435 28.2603 10.5727C28.0479 10.7803 27.9335 10.7644 27.7047 10.5967C22.4109 6.61273 14.6906 7.69056 10.7447 12.9599C10.0503 13.8861 9.48662 14.8841 9.09448 15.9699C9.0618 16.0657 8.99645 16.1535 8.94743 16.2493C7.89356 15.4669 6.83151 14.6845 5.78581 13.894C4.56037 12.9759 3.33494 12.0578 2.11768 11.1316Z" fill="#E94335"/>
<path d="M8.9473 23.7383C9.29859 24.4968 9.59269 25.2872 10.0339 25.9977C11.8883 28.9677 14.5353 30.8759 18.0237 31.5545C21.169 32.1693 24.1917 31.7541 27.0102 30.2132C27.1082 30.1653 27.2063 30.1174 27.2961 30.0695C27.3452 30.1174 27.386 30.1733 27.435 30.2132C29.5428 31.81 31.6587 33.4068 33.7664 35.0036C32.7534 35.9856 31.6015 36.776 30.3761 37.4626C26.8223 39.4426 22.9744 40.241 18.9223 39.9376C13.8735 39.5544 9.51917 37.6063 5.92456 34.0934C4.34784 32.5525 3.04887 30.812 2.10938 28.824C2.98352 28.1694 3.85766 27.5227 4.7318 26.868C6.13697 25.8221 7.54213 24.7842 8.9473 23.7383Z" fill="#34A853"/>
<path d="M33.7749 35.0037C31.6672 33.4069 29.5513 31.8101 27.4435 30.2134C27.3945 30.1734 27.3455 30.1176 27.3046 30.0696C28.0317 29.5188 28.7752 28.9838 29.3715 28.2813C30.3682 27.1156 31.03 25.7983 31.3731 24.3212C31.4139 24.1376 31.3813 24.0737 31.1934 24.0817C31.0953 24.0897 31.0055 24.0817 30.9074 24.0817C27.5742 24.0817 24.2329 24.0737 20.8997 24.0897C20.5321 24.0897 20.4504 23.9939 20.4585 23.6506C20.4749 21.3353 20.4749 19.0199 20.4585 16.7046C20.4585 16.4092 20.5402 16.3293 20.8425 16.3293C26.9534 16.3373 33.0642 16.3373 39.1832 16.3293C39.4446 16.3293 39.5508 16.3932 39.6162 16.6647C40.1145 18.8602 40.0818 21.0638 39.7796 23.2833C39.5345 25.0558 39.0933 26.7723 38.4152 28.4329C37.4104 30.884 35.9317 33.0237 33.9873 34.86C33.9138 34.9159 33.8403 34.9558 33.7749 35.0037Z" fill="#4285F3"/>
<path d="M8.94752 23.7385C7.54236 24.7844 6.13719 25.8223 4.73203 26.8682C3.85788 27.5149 2.98374 28.1696 2.1096 28.8242C1.43152 27.5947 0.990368 26.2933 0.630908 24.9521C-0.0553356 22.3573 -0.16154 19.7226 0.21426 17.0799C0.508364 15.0041 1.12108 13.0081 2.1096 11.1399C3.33503 12.058 4.5523 12.9842 5.77773 13.9023C6.8316 14.6927 7.88548 15.4752 8.93935 16.2576C8.75962 17.1119 8.50636 17.9502 8.42467 18.8284C8.27762 20.4252 8.43284 21.982 8.8985 23.5149C8.93118 23.5788 8.93935 23.6587 8.94752 23.7385Z" fill="#FABB06"/>
</svg>
