<svg width="20" height="20" viewBox="0 0 20 20" fill="none" xmlns="http://www.w3.org/2000/svg">
<path d="M14.7368 20V17H11.5789V15H14.7368V12H16.8421V15H20V17H16.8421V20H14.7368ZM2.10526 18C1.52632 18 1.0307 17.8042 0.618421 17.4125C0.20614 17.0208 0 16.55 0 16V4C0 3.45 0.20614 2.97917 0.618421 2.5875C1.0307 2.19583 1.52632 2 2.10526 2H3.15789V0H5.26316V2H11.5789V0H13.6842V2H14.7368C15.3158 2 15.8114 2.19583 16.2237 2.5875C16.636 2.97917 16.8421 3.45 16.8421 4V10.1C16.4912 10.05 16.1404 10.025 15.7895 10.025C15.4386 10.025 15.0877 10.05 14.7368 10.1V8H2.10526V16H9.47368C9.47368 16.3333 9.5 16.6667 9.55263 17C9.60526 17.3333 9.70175 17.6667 9.8421 18H2.10526ZM2.10526 6H14.7368V4H2.10526V6Z" fill="#0B5030"/>
</svg>
