<svg width="20" height="20" viewBox="0 0 20 20" fill="none" xmlns="http://www.w3.org/2000/svg">
<path d="M7.00002 14.1665L10 11.1665L13 14.1665L14.1667 12.9998L11.1667 9.99984L14.1667 6.99984L13 5.83317L10 8.83317L7.00002 5.83317L5.83335 6.99984L8.83335 9.99984L5.83335 12.9998L7.00002 14.1665ZM10 18.3332C8.84724 18.3332 7.76391 18.1144 6.75002 17.6769C5.73613 17.2394 4.85419 16.6457 4.10419 15.8957C3.35419 15.1457 2.76044 14.2637 2.32294 13.2498C1.88544 12.2359 1.66669 11.1526 1.66669 9.99984C1.66669 8.84706 1.88544 7.76373 2.32294 6.74984C2.76044 5.73595 3.35419 4.854 4.10419 4.104C4.85419 3.354 5.73613 2.76025 6.75002 2.32275C7.76391 1.88525 8.84724 1.6665 10 1.6665C11.1528 1.6665 12.2361 1.88525 13.25 2.32275C14.2639 2.76025 15.1459 3.354 15.8959 4.104C16.6459 4.854 17.2396 5.73595 17.6771 6.74984C18.1146 7.76373 18.3334 8.84706 18.3334 9.99984C18.3334 11.1526 18.1146 12.2359 17.6771 13.2498C17.2396 14.2637 16.6459 15.1457 15.8959 15.8957C15.1459 16.6457 14.2639 17.2394 13.25 17.6769C12.2361 18.1144 11.1528 18.3332 10 18.3332ZM10 16.6665C11.8611 16.6665 13.4375 16.0207 14.7292 14.729C16.0209 13.4373 16.6667 11.8609 16.6667 9.99984C16.6667 8.13873 16.0209 6.56234 14.7292 5.27067C13.4375 3.979 11.8611 3.33317 10 3.33317C8.13891 3.33317 6.56252 3.979 5.27085 5.27067C3.97919 6.56234 3.33335 8.13873 3.33335 9.99984C3.33335 11.8609 3.97919 13.4373 5.27085 14.729C6.56252 16.0207 8.13891 16.6665 10 16.6665Z" fill="#F5F5F5"/>
</svg>
