<svg width="41" height="44" viewBox="0 0 41 44" fill="none" xmlns="http://www.w3.org/2000/svg">
<path d="M15.821 21.9033L24.7017 30.5265M24.7017 21.9033L15.821 30.5265M2.5 8.9684H38.0227M29.142 8.9684L28.5413 7.21804C27.9589 5.5218 27.6676 4.67369 27.1277 4.04665C26.6508 3.49293 26.0385 3.06433 25.3467 2.80016C24.5632 2.50098 23.6427 2.50098 21.8013 2.50098H18.7214C16.88 2.50098 15.9596 2.50098 15.1761 2.80016C14.4843 3.06433 13.8719 3.49293 13.395 4.04665C12.855 4.67369 12.5639 5.5218 11.9815 7.21804L11.3807 8.9684M33.5824 8.9684V30.9576C33.5824 34.5798 33.5824 36.3907 32.8564 37.7743C32.2179 38.9913 31.199 39.9806 29.9457 40.6006C28.5208 41.3055 26.6559 41.3055 22.9256 41.3055H17.5972C13.8669 41.3055 12.0018 41.3055 10.577 40.6006C9.32378 39.9806 8.30486 38.9913 7.66629 37.7743C6.94034 36.3907 6.94034 34.5798 6.94034 30.9576V8.9684" stroke="#800020" stroke-width="5" stroke-linecap="round" stroke-linejoin="round"/>
</svg>
