<svg width="30" height="31" viewBox="0 0 30 31" fill="none" xmlns="http://www.w3.org/2000/svg">
<path d="M6.25 10.5H23.75V8H6.25V10.5ZM6.25 28C5.5625 28 4.97396 27.7552 4.48438 27.2656C3.99479 26.776 3.75 26.1875 3.75 25.5V8C3.75 7.3125 3.99479 6.72396 4.48438 6.23438C4.97396 5.74479 5.5625 5.5 6.25 5.5H7.5V3H10V5.5H20V3H22.5V5.5H23.75C24.4375 5.5 25.026 5.74479 25.5156 6.23438C26.0052 6.72396 26.25 7.3125 26.25 8V15.0938C25.8542 14.9062 25.4479 14.75 25.0312 14.625C24.6146 14.5 24.1875 14.4062 23.75 14.3438V13H6.25V25.5H14.125C14.2708 25.9583 14.4427 26.3958 14.6406 26.8125C14.8385 27.2292 15.0729 27.625 15.3438 28H6.25ZM22.5 29.25C20.7708 29.25 19.2969 28.6406 18.0781 27.4219C16.8594 26.2031 16.25 24.7292 16.25 23C16.25 21.2708 16.8594 19.7969 18.0781 18.5781C19.2969 17.3594 20.7708 16.75 22.5 16.75C24.2292 16.75 25.7031 17.3594 26.9219 18.5781C28.1406 19.7969 28.75 21.2708 28.75 23C28.75 24.7292 28.1406 26.2031 26.9219 27.4219C25.7031 28.6406 24.2292 29.25 22.5 29.25ZM24.5938 25.9688L25.4688 25.0938L23.125 22.75V19.25H21.875V23.25L24.5938 25.9688Z" fill="#F5F5F5"/>
</svg>
