<svg width="40" height="40" viewBox="0 0 40 40" fill="none" xmlns="http://www.w3.org/2000/svg">
<path d="M15.4167 36.6666L14.75 31.3333C14.3889 31.1944 14.0486 31.0277 13.7292 30.8333C13.4097 30.6388 13.0972 30.4305 12.7917 30.2083L7.83333 32.2916L3.25 24.3749L7.54167 21.1249C7.51389 20.9305 7.5 20.743 7.5 20.5624V19.4374C7.5 19.2569 7.51389 19.0694 7.54167 18.8749L3.25 15.6249L7.83333 7.70825L12.7917 9.79158C13.0972 9.56936 13.4167 9.36103 13.75 9.16658C14.0833 8.97214 14.4167 8.80547 14.75 8.66658L15.4167 3.33325H24.5833L25.25 8.66658C25.6111 8.80547 25.9514 8.97214 26.2708 9.16658C26.5903 9.36103 26.9028 9.56936 27.2083 9.79158L32.1667 7.70825L36.75 15.6249L32.4583 18.8749C32.4861 19.0694 32.5 19.2569 32.5 19.4374V20.5624C32.5 20.743 32.4722 20.9305 32.4167 21.1249L36.7083 24.3749L32.125 32.2916L27.2083 30.2083C26.9028 30.4305 26.5833 30.6388 26.25 30.8333C25.9167 31.0277 25.5833 31.1944 25.25 31.3333L24.5833 36.6666H15.4167ZM18.3333 33.3333H21.625L22.2083 28.9166C23.0694 28.6944 23.8681 28.368 24.6042 27.9374C25.3403 27.5069 26.0139 26.986 26.625 26.3749L30.75 28.0833L32.375 25.2499L28.7917 22.5416C28.9306 22.1527 29.0278 21.743 29.0833 21.3124C29.1389 20.8819 29.1667 20.4444 29.1667 19.9999C29.1667 19.5555 29.1389 19.118 29.0833 18.6874C29.0278 18.2569 28.9306 17.8471 28.7917 17.4583L32.375 14.7499L30.75 11.9166L26.625 13.6666C26.0139 13.0277 25.3403 12.493 24.6042 12.0624C23.8681 11.6319 23.0694 11.3055 22.2083 11.0833L21.6667 6.66658H18.375L17.7917 11.0833C16.9306 11.3055 16.1319 11.6319 15.3958 12.0624C14.6597 12.493 13.9861 13.0138 13.375 13.6249L9.25 11.9166L7.625 14.7499L11.2083 17.4166C11.0694 17.8333 10.9722 18.2499 10.9167 18.6666C10.8611 19.0833 10.8333 19.5277 10.8333 19.9999C10.8333 20.4444 10.8611 20.8749 10.9167 21.2916C10.9722 21.7083 11.0694 22.1249 11.2083 22.5416L7.625 25.2499L9.25 28.0833L13.375 26.3333C13.9861 26.9721 14.6597 27.5069 15.3958 27.9374C16.1319 28.368 16.9306 28.6944 17.7917 28.9166L18.3333 33.3333ZM20.0833 25.8333C21.6944 25.8333 23.0694 25.2638 24.2083 24.1249C25.3472 22.986 25.9167 21.611 25.9167 19.9999C25.9167 18.3888 25.3472 17.0138 24.2083 15.8749C23.0694 14.736 21.6944 14.1666 20.0833 14.1666C18.4444 14.1666 17.0625 14.736 15.9375 15.8749C14.8125 17.0138 14.25 18.3888 14.25 19.9999C14.25 21.611 14.8125 22.986 15.9375 24.1249C17.0625 25.2638 18.4444 25.8333 20.0833 25.8333Z" fill="#0B5030"/>
</svg>
