<svg width="30" height="31" viewBox="0 0 30 31" fill="none" xmlns="http://www.w3.org/2000/svg">
<path d="M8.75 28C8.0625 28 7.47396 27.7552 6.98438 27.2656C6.49479 26.776 6.25 26.1875 6.25 25.5C6.25 24.8125 6.49479 24.224 6.98438 23.7344C7.47396 23.2448 8.0625 23 8.75 23C9.4375 23 10.026 23.2448 10.5156 23.7344C11.0052 24.224 11.25 24.8125 11.25 25.5C11.25 26.1875 11.0052 26.776 10.5156 27.2656C10.026 27.7552 9.4375 28 8.75 28ZM21.25 28C20.5625 28 19.974 27.7552 19.4844 27.2656C18.9948 26.776 18.75 26.1875 18.75 25.5C18.75 24.8125 18.9948 24.224 19.4844 23.7344C19.974 23.2448 20.5625 23 21.25 23C21.9375 23 22.526 23.2448 23.0156 23.7344C23.5052 24.224 23.75 24.8125 23.75 25.5C23.75 26.1875 23.5052 26.776 23.0156 27.2656C22.526 27.7552 21.9375 28 21.25 28ZM7.6875 8L10.6875 14.25H19.4375L22.875 8H7.6875ZM6.5 5.5H24.9375C25.4167 5.5 25.7812 5.71354 26.0312 6.14062C26.2812 6.56771 26.2917 7 26.0625 7.4375L21.625 15.4375C21.3958 15.8542 21.0885 16.1771 20.7031 16.4062C20.3177 16.6354 19.8958 16.75 19.4375 16.75H10.125L8.75 19.25H23.75V21.75H8.75C7.8125 21.75 7.10417 21.3385 6.625 20.5156C6.14583 19.6927 6.125 18.875 6.5625 18.0625L8.25 15L3.75 5.5H1.25V3H5.3125L6.5 5.5Z" fill="#F5F5F5"/>
</svg>
