<svg width="23" height="25" viewBox="0 0 23 25" fill="none" xmlns="http://www.w3.org/2000/svg">
<path d="M7.25 22.9167C6.67708 22.9167 6.18663 22.7127 5.77865 22.3047C5.37066 21.8967 5.16667 21.4062 5.16667 20.8333C5.16667 20.2604 5.37066 19.77 5.77865 19.362C6.18663 18.954 6.67708 18.75 7.25 18.75C7.82292 18.75 8.31337 18.954 8.72135 19.362C9.12934 19.77 9.33333 20.2604 9.33333 20.8333C9.33333 21.4062 9.12934 21.8967 8.72135 22.3047C8.31337 22.7127 7.82292 22.9167 7.25 22.9167ZM17.6667 22.9167C17.0937 22.9167 16.6033 22.7127 16.1953 22.3047C15.7873 21.8967 15.5833 21.4062 15.5833 20.8333C15.5833 20.2604 15.7873 19.77 16.1953 19.362C16.6033 18.954 17.0937 18.75 17.6667 18.75C18.2396 18.75 18.73 18.954 19.138 19.362C19.546 19.77 19.75 20.2604 19.75 20.8333C19.75 21.4062 19.546 21.8967 19.138 22.3047C18.73 22.7127 18.2396 22.9167 17.6667 22.9167ZM6.36458 6.25L8.86458 11.4583H16.1562L19.0208 6.25H6.36458ZM5.375 4.16667H20.7396C21.1389 4.16667 21.4427 4.34462 21.651 4.70052C21.8594 5.05642 21.8681 5.41667 21.6771 5.78125L17.9792 12.4479C17.7882 12.7951 17.5321 13.0642 17.2109 13.2552C16.8898 13.4462 16.5382 13.5417 16.1562 13.5417H8.39583L7.25 15.625H19.75V17.7083H7.25C6.46875 17.7083 5.87847 17.3655 5.47917 16.6797C5.07986 15.9939 5.0625 15.3125 5.42708 14.6354L6.83333 12.0833L3.08333 4.16667H1V2.08333H4.38542L5.375 4.16667Z" fill="#F5F5F5"/>
</svg>
